<?xml version="1.0" encoding="UTF-8"?>
<!DOCTYPE svg PUBLIC "-//W3C//DTD SVG 1.1//EN" "http://www.w3.org/Graphics/SVG/1.1/DTD/svg11.dtd">
<svg xmlns="http://www.w3.org/2000/svg" version="1.1" width="512px" height="512px" style="shape-rendering:geometricPrecision; text-rendering:geometricPrecision; image-rendering:optimizeQuality; fill-rule:evenodd; clip-rule:evenodd" xmlns:xlink="http://www.w3.org/1999/xlink">
<g><path style="opacity:0.926" fill="#030303" d="M 266.5,85.5 C 274.507,85.3336 282.507,85.5003 290.5,86C 306.473,93.3168 321.806,101.65 336.5,111C 342.373,115.575 347.206,121.075 351,127.5C 360,142.833 369,158.167 378,173.5C 392.376,214.259 399.542,256.092 399.5,299C 407.932,299.847 416.265,299.347 424.5,297.5C 430.263,298.732 436.096,299.398 442,299.5C 455.472,298.03 468.972,297.53 482.5,298C 485.448,299.01 486.114,300.843 484.5,303.5C 476.456,304.341 468.456,305.507 460.5,307C 442.328,307.316 424.161,307.15 406,306.5C 402.566,306.932 399.9,308.599 398,311.5C 395.639,319.218 392.472,326.551 388.5,333.5C 388.818,334.647 389.484,335.481 390.5,336C 401.756,338.981 413.089,341.647 424.5,344C 433.469,346.545 442.136,349.879 450.5,354C 462.423,366.157 463.59,379.324 454,393.5C 451.736,396.433 448.902,398.6 445.5,400C 430.833,400.667 416.167,400.667 401.5,400C 393.683,398.531 386.016,396.531 378.5,394C 369.581,387.752 361.248,380.752 353.5,373C 351.487,371.743 349.321,370.909 347,370.5C 340.23,372.868 333.397,375.034 326.5,377C 320.046,378.017 313.546,378.517 307,378.5C 286.482,377.091 265.982,375.424 245.5,373.5C 236.796,373.93 228.129,374.763 219.5,376C 202.787,378.214 186.787,375.88 171.5,369C 161.523,362.287 158.357,353.12 162,341.5C 166.506,333.323 173.339,328.156 182.5,326C 186.167,323.667 189.167,320.667 191.5,317C 188.652,314.134 187.152,310.634 187,306.5C 186.5,306 186,305.5 185.5,305C 174.644,304.468 163.81,303.634 153,302.5C 149.491,302.452 146.157,303.119 143,304.5C 139.418,300.99 139.918,298.157 144.5,296C 154.367,295.671 164.201,296.171 174,297.5C 186.269,299.319 190.102,294.319 185.5,282.5C 173.41,277.577 163.91,269.577 157,258.5C 153.255,242.988 159.255,233.988 175,231.5C 184.261,233.533 193.428,235.866 202.5,238.5C 197.642,224.755 193.475,210.755 190,196.5C 188.662,182.388 187.496,168.388 186.5,154.5C 186.57,153.228 186.903,152.062 187.5,151C 182.477,150.107 177.477,149.107 172.5,148C 167.743,145.654 165.743,141.821 166.5,136.5C 166.782,128.775 170.115,122.608 176.5,118C 184.382,111.561 193.382,107.561 203.5,106C 216.253,105.984 228.92,104.984 241.5,103C 242.833,102.333 244.167,101.667 245.5,101C 248.022,96.9659 251.022,93.2992 254.5,90C 258.715,88.7659 262.715,87.2659 266.5,85.5 Z"/></g>
<g><path style="opacity:1" fill="#f7f7f7" d="M 378.5,330.5 C 377.305,330.134 376.639,329.301 376.5,328C 380.503,315.145 382.169,301.978 381.5,288.5C 378.95,248.3 369.784,209.633 354,172.5C 340.428,144.594 320.261,122.761 293.5,107C 284.354,103.118 275.02,99.9515 265.5,97.5C 265.918,96.7784 266.584,96.2784 267.5,96C 293.006,95.0578 315.006,103.391 333.5,121C 359.456,149.406 376.623,182.573 385,220.5C 390.695,245.868 393.028,271.534 392,297.5C 390.203,309.74 385.703,320.74 378.5,330.5 Z"/></g>
<g><path style="opacity:1" fill="#969696" d="M 265.5,97.5 C 275.02,99.9515 284.354,103.118 293.5,107C 320.261,122.761 340.428,144.594 354,172.5C 369.784,209.633 378.95,248.3 381.5,288.5C 382.169,301.978 380.503,315.145 376.5,328C 376.639,329.301 377.305,330.134 378.5,330.5C 377.914,332.84 376.914,335.007 375.5,337C 372.167,336.667 368.833,336.333 365.5,336C 364.14,337.938 364.473,339.604 366.5,341C 380.59,347.585 394.923,353.585 409.5,359C 419.413,361.317 429.413,362.983 439.5,364C 447.123,368.746 450.289,375.58 449,384.5C 446.417,391.047 441.583,394.547 434.5,395C 406.975,399.432 382.975,392.432 362.5,374C 355.858,366.494 349.358,358.994 343,351.5C 341.268,351.734 340.434,352.734 340.5,354.5C 341.398,356.626 342.565,358.626 344,360.5C 344.72,362.112 344.554,363.612 343.5,365C 328.878,371.857 313.544,374.19 297.5,372C 266.43,367.222 235.263,366.388 204,369.5C 191.265,370.585 179.932,367.252 170,359.5C 164.506,350.947 165.673,343.447 173.5,337C 181.686,334.993 188.519,330.827 194,324.5C 195.947,320.716 197.28,316.716 198,312.5C 198.337,306.461 199.003,300.461 200,294.5C 200.785,292.714 201.951,291.214 203.5,290C 210.381,291.158 217.381,291.658 224.5,291.5C 224.5,289.833 224.5,288.167 224.5,286.5C 198.56,286.113 177.727,275.78 162,255.5C 161.551,241.3 168.384,235.8 182.5,239C 189.191,241.787 196.024,243.953 203,245.5C 206.869,245.272 210.702,244.772 214.5,244C 215.357,243.311 216.023,242.478 216.5,241.5C 213.841,240.188 211.341,238.521 209,236.5C 195.702,204.411 190.702,171.077 194,136.5C 192.951,135.483 191.784,135.316 190.5,136C 189.044,138.266 188.21,140.766 188,143.5C 183.254,144.719 178.754,144.052 174.5,141.5C 172.661,139.473 172.161,137.14 173,134.5C 179.104,125.031 187.604,118.865 198.5,116C 222.465,114.728 246.132,111.395 269.5,106C 270.833,104.333 270.833,102.667 269.5,101C 264.934,101.925 260.267,102.259 255.5,102C 257.979,98.5938 261.312,97.0938 265.5,97.5 Z"/></g>
<g><path style="opacity:0.892" fill="#040404" d="M 122.5,209.5 C 135.09,210.286 139.59,216.952 136,229.5C 134.961,231.901 134.794,234.234 135.5,236.5C 141.646,234.338 147.979,233.338 154.5,233.5C 154.822,235.722 154.155,237.556 152.5,239C 139.734,239.881 129.401,245.215 121.5,255C 116.388,281.386 101.388,289.719 76.5,280C 73.0904,276.101 71.9237,271.601 73,266.5C 75.3294,258.502 79.6627,251.835 86,246.5C 86.2703,229.54 94.4369,218.04 110.5,212C 114.637,211.161 118.637,210.327 122.5,209.5 Z"/></g>
<g><path style="opacity:1" fill="#939393" d="M 119.5,215.5 C 129.101,214.606 132.935,218.939 131,228.5C 127.966,238.865 121.466,246.032 111.5,250C 106.513,250.003 101.513,249.669 96.5,249C 90.7922,243.993 89.9589,238.159 94,231.5C 100.289,222.449 108.789,217.116 119.5,215.5 Z"/></g>
<g><path style="opacity:1" fill="#939393" d="M 89.5,251.5 C 94.0424,253.265 98.709,254.765 103.5,256C 107.423,256.793 111.256,256.626 115,255.5C 113.696,266.156 107.863,273.323 97.5,277C 93.1667,277.667 88.8333,277.667 84.5,277C 79.5736,274.647 77.7402,270.814 79,265.5C 81.5943,260.083 85.0943,255.417 89.5,251.5 Z"/></g>
<g><path style="opacity:1" fill="#898989" d="M 192.5,285.5 C 196.563,289.198 196.396,292.865 192,296.5C 191.421,292.797 191.588,289.131 192.5,285.5 Z"/></g>
<g><path style="opacity:0.853" fill="#000000" d="M 55.5,297.5 C 82.8415,297.167 110.175,297.5 137.5,298.5C 138.953,300.644 138.62,302.477 136.5,304C 110.167,304.667 83.8333,304.667 57.5,304C 53.0986,302.963 52.432,300.796 55.5,297.5 Z"/></g>
<g><path style="opacity:0.988" fill="#606060" d="M 191.5,301.5 C 192.117,301.611 192.617,301.944 193,302.5C 193.273,310.094 192.773,309.761 191.5,301.5 Z"/></g>
<g><path style="opacity:0.992" fill="#585858" d="M 411.5,351.5 C 416.812,350.973 422.145,351.807 427.5,354C 422.102,353.821 416.769,352.987 411.5,351.5 Z"/></g>
</svg>
