<?xml version="1.0" encoding="UTF-8"?>
<!DOCTYPE svg PUBLIC "-//W3C//DTD SVG 1.1//EN" "http://www.w3.org/Graphics/SVG/1.1/DTD/svg11.dtd">
<svg xmlns="http://www.w3.org/2000/svg" version="1.1" width="512px" height="512px" style="shape-rendering:geometricPrecision; text-rendering:geometricPrecision; image-rendering:optimizeQuality; fill-rule:evenodd; clip-rule:evenodd" xmlns:xlink="http://www.w3.org/1999/xlink">
<g><path style="opacity:0.909" fill="#030303" d="M 259.5,72.5 C 267.174,72.3336 274.841,72.5003 282.5,73C 302.181,79.6674 319.848,89.6674 335.5,103C 341.848,109.536 347.348,116.703 352,124.5C 381.262,178.807 395.262,236.807 394,298.5C 404.186,299.939 414.353,299.606 424.5,297.5C 430.421,298.812 436.421,299.479 442.5,299.5C 452.331,298.803 462.165,298.137 472,297.5C 476.523,297.294 480.856,297.961 485,299.5C 485.595,300.899 485.428,302.232 484.5,303.5C 476.456,304.341 468.456,305.507 460.5,307C 441.663,307.385 422.83,307.219 404,306.5C 399.523,306.733 396.19,308.733 394,312.5C 390.948,319.973 388.948,327.64 388,335.5C 389.693,337.604 391.86,339.104 394.5,340C 410.345,345.769 426.679,349.102 443.5,350C 454.732,354.594 460.399,363.094 460.5,375.5C 460.836,385.681 456.169,392.181 446.5,395C 428.833,395.667 411.167,395.667 393.5,395C 378.766,390.265 366.1,382.265 355.5,371C 353.933,369.924 352.266,369.091 350.5,368.5C 336.773,375.932 322.106,379.265 306.5,378.5C 287.157,377.055 267.824,375.388 248.5,373.5C 236.481,374.279 224.481,375.279 212.5,376.5C 197.072,376.561 182.739,372.727 169.5,365C 158.359,355.838 156.525,345.005 164,332.5C 166.447,328.216 169.947,325.216 174.5,323.5C 178.413,324.98 181.913,324.313 185,321.5C 187.04,315.972 188.04,310.305 188,304.5C 176.196,304.953 164.363,304.286 152.5,302.5C 149.094,302.296 145.928,302.962 143,304.5C 139.418,300.99 139.918,298.157 144.5,296C 158.11,297.142 171.776,297.475 185.5,297C 192.196,294.146 195.863,288.98 196.5,281.5C 192.689,276.521 188.689,271.688 184.5,267C 182.275,265.869 179.942,265.036 177.5,264.5C 171.949,266.541 167.116,265.541 163,261.5C 152.255,243.266 153.421,225.766 166.5,209C 175.377,204.954 184.71,203.454 194.5,204.5C 190.019,180.729 187.519,156.729 187,132.5C 184.667,125.167 182.333,117.833 180,110.5C 179.333,107.5 179.333,104.5 180,101.5C 181.171,100.107 182.671,99.2735 184.5,99C 195.833,98.6667 207.167,98.3333 218.5,98C 226.322,97.5689 233.989,96.2356 241.5,94C 244.759,92.7894 247.592,90.9561 250,88.5C 252.597,82.7577 255.763,77.4243 259.5,72.5 Z"/></g>
<g><path style="opacity:1" fill="#f8f8f8" d="M 376.5,332.5 C 375.191,331.376 374.525,329.876 374.5,328C 379.65,292.315 377.15,257.148 367,222.5C 360,201.5 353,180.5 346,159.5C 335.365,134.543 319.198,114.043 297.5,98C 286.678,91.2537 275.012,86.7537 262.5,84.5C 262.5,83.5 262.5,82.5 262.5,81.5C 262.577,80.2502 263.244,79.4169 264.5,79C 284.83,79.3329 303.163,85.6662 319.5,98C 336.142,110.776 348.308,126.943 356,146.5C 378.899,195.66 389.232,247.327 387,301.5C 385.786,312.727 382.286,323.061 376.5,332.5 Z"/></g>
<g><path style="opacity:1" fill="#969696" d="M 262.5,81.5 C 262.5,82.5 262.5,83.5 262.5,84.5C 275.012,86.7537 286.678,91.2537 297.5,98C 319.198,114.043 335.365,134.543 346,159.5C 353,180.5 360,201.5 367,222.5C 377.15,257.148 379.65,292.315 374.5,328C 374.525,329.876 375.191,331.376 376.5,332.5C 376.778,334.346 376.111,335.68 374.5,336.5C 371.724,334.87 368.724,334.203 365.5,334.5C 365.799,337.642 367.466,339.809 370.5,341C 387.637,348.158 405.304,353.491 423.5,357C 444.424,353.265 453.591,361.765 451,382.5C 448.193,387.158 444.026,389.658 438.5,390C 427.167,390.667 415.833,390.667 404.5,390C 390.917,388.697 378.917,383.697 368.5,375C 360.128,368.295 352.795,360.629 346.5,352C 345.207,351.51 343.873,351.343 342.5,351.5C 342.796,354.917 343.796,358.084 345.5,361C 345.561,362.711 344.894,364.044 343.5,365C 332.184,369.954 320.351,372.787 308,373.5C 291.218,371.238 274.385,369.405 257.5,368C 237.154,368.002 216.821,368.335 196.5,369C 186.517,366.844 177.517,362.678 169.5,356.5C 164.213,349.169 164.38,341.836 170,334.5C 174.188,331.134 179.021,329.634 184.5,330C 186.286,329.215 187.786,328.049 189,326.5C 192.975,313.935 196.642,301.268 200,288.5C 201.926,285.241 204.426,282.741 207.5,281C 201.4,276.233 195.9,270.733 191,264.5C 186.468,255.708 183.802,246.374 183,236.5C 182.333,235.167 181.667,233.833 181,232.5C 178,230.167 175,227.833 172,225.5C 170.677,218.645 173.177,213.811 179.5,211C 191.674,206.844 200.841,210.344 207,221.5C 207.993,227.169 210.493,232.002 214.5,236C 217.724,238.346 220.39,238.013 222.5,235C 220.71,232.836 218.544,231.002 216,229.5C 214.305,224.053 212.305,218.72 210,213.5C 206.914,210.483 203.914,207.483 201,204.5C 194.625,178.88 192.792,153.046 195.5,127C 193.075,126.707 191.242,125.541 190,123.5C 187.401,117.722 186.068,111.722 186,105.5C 186.5,105 187,104.5 187.5,104C 216.143,105.077 244.143,101.41 271.5,93C 273.063,90.5237 272.396,89.0237 269.5,88.5C 265.553,89.1875 261.72,90.1875 258,91.5C 257.333,90.1667 257.333,88.8333 258,87.5C 260.131,85.8831 261.631,83.8831 262.5,81.5 Z"/></g>
<g><path style="opacity:1" fill="#8e8e8e" d="M 164.5,227.5 C 170.019,230.177 174.519,234.177 178,239.5C 179.896,243.878 179.729,248.212 177.5,252.5C 178.065,254.405 179.065,256.071 180.5,257.5C 178.067,260.242 175.067,261.075 171.5,260C 162.622,250.648 160.289,239.814 164.5,227.5 Z"/></g>
<g><path style="opacity:0.813" fill="#000000" d="M 56.5,297.5 C 83.5082,297.167 110.508,297.5 137.5,298.5C 138.953,300.644 138.62,302.477 136.5,304C 109.833,304.667 83.1667,304.667 56.5,304C 52.6054,301.846 52.6054,299.679 56.5,297.5 Z"/></g>
</svg>
