<?xml version="1.0" encoding="UTF-8"?>
<!DOCTYPE svg PUBLIC "-//W3C//DTD SVG 1.1//EN" "http://www.w3.org/Graphics/SVG/1.1/DTD/svg11.dtd">
<svg xmlns="http://www.w3.org/2000/svg" version="1.1" width="512px" height="512px" style="shape-rendering:geometricPrecision; text-rendering:geometricPrecision; image-rendering:optimizeQuality; fill-rule:evenodd; clip-rule:evenodd" xmlns:xlink="http://www.w3.org/1999/xlink">
<g><path style="opacity:0.926" fill="#030303" d="M 304.5,65.5 C 311.97,63.8235 317.803,66.1568 322,72.5C 324.414,80.0747 327.414,87.408 331,94.5C 338,104.833 345,115.167 352,125.5C 356.824,134.146 360.824,143.146 364,152.5C 374.027,167.224 381.361,183.224 386,200.5C 389.475,214.733 392.475,229.066 395,243.5C 396.98,261.771 397.98,280.105 398,298.5C 399.738,299.127 401.571,299.46 403.5,299.5C 410.5,298.833 417.5,298.167 424.5,297.5C 430.421,298.812 436.421,299.479 442.5,299.5C 452.331,298.803 462.165,298.137 472,297.5C 476.523,297.294 480.856,297.961 485,299.5C 485.782,303.056 484.282,304.889 480.5,305C 454.226,307.107 427.893,308.107 401.5,308C 400.333,309.167 399.167,310.333 398,311.5C 396.172,317.492 393.672,323.159 390.5,328.5C 391.09,329.799 392.09,330.632 393.5,331C 399.5,332 405.5,333 411.5,334C 421.83,333.883 432.163,333.883 442.5,334C 454.559,336.567 460.559,344.067 460.5,356.5C 459.991,362.214 458.658,367.714 456.5,373C 458.008,380.104 457.174,386.938 454,393.5C 451.736,396.433 448.902,398.6 445.5,400C 430.833,400.667 416.167,400.667 401.5,400C 395.551,398.453 389.551,397.119 383.5,396C 379.6,394.435 375.934,392.435 372.5,390C 366.167,384.333 359.833,378.667 353.5,373C 351.487,371.743 349.321,370.909 347,370.5C 329.565,378.014 311.399,380.514 292.5,378C 277.532,376.17 262.532,374.67 247.5,373.5C 230.545,375.497 213.545,376.33 196.5,376C 186.051,375.405 176.385,372.405 167.5,367C 160.609,359.666 158.776,351.166 162,341.5C 163.738,337.759 166.238,334.592 169.5,332C 176.415,329.252 182.915,325.752 189,321.5C 193.325,315.145 193.492,308.812 189.5,302.5C 185.472,303.937 181.305,304.603 177,304.5C 168.99,303.954 160.99,303.287 153,302.5C 149.813,302.394 146.813,303.061 144,304.5C 139.506,301.998 139.34,299.165 143.5,296C 145.833,295.833 148.167,295.667 150.5,295.5C 163.161,297.685 175.828,297.851 188.5,296C 191.23,293.87 193.23,291.203 194.5,288C 186.001,283.252 177.668,278.252 169.5,273C 166,269.5 162.5,266 159,262.5C 152.193,248.248 156.026,238.082 170.5,232C 167.652,225.741 162.985,223.574 156.5,225.5C 154.39,224.946 152.39,224.112 150.5,223C 141.47,202.484 145.137,184.484 161.5,169C 164.702,167.517 168.036,167.183 171.5,168C 176.662,171.749 181.996,175.249 187.5,178.5C 188.141,169.799 188.474,161.132 188.5,152.5C 188.291,151.914 187.957,151.414 187.5,151C 181.689,150.199 176.022,148.866 170.5,147C 165.746,141.28 165.246,135.114 169,128.5C 177.04,119.401 186.874,113.234 198.5,110C 203.849,100.299 210.183,91.2991 217.5,83C 231.875,73.6779 241.375,77.1779 246,93.5C 256.874,90.9237 267.707,88.0904 278.5,85C 287.414,78.7226 296.08,72.2226 304.5,65.5 Z"/></g>
<g><path style="opacity:1" fill="#f8f8f8" d="M 376.5,330.5 C 375.939,329.092 375.605,327.592 375.5,326C 380.276,291.17 377.442,257.003 367,223.5C 357.875,200.124 349.541,176.458 342,152.5C 335.476,137.439 326.476,124.105 315,112.5C 308.159,101.818 302.659,90.485 298.5,78.5C 301.923,73.6254 306.59,71.7921 312.5,73C 313.667,74.1667 314.833,75.3333 316,76.5C 318.943,84.6622 322.276,92.6622 326,100.5C 333.822,110.145 341.155,120.145 348,130.5C 353.161,140.488 357.494,150.822 361,161.5C 368.337,186.85 375.67,212.183 383,237.5C 390.564,266.598 390.231,295.598 382,324.5C 381.285,327.641 379.452,329.641 376.5,330.5 Z"/></g>
<g><path style="opacity:1" fill="#969696" d="M 298.5,78.5 C 302.659,90.485 308.159,101.818 315,112.5C 326.476,124.105 335.476,137.439 342,152.5C 349.541,176.458 357.875,200.124 367,223.5C 377.442,257.003 380.276,291.17 375.5,326C 375.605,327.592 375.939,329.092 376.5,330.5C 373.819,330.538 371.319,329.871 369,328.5C 368.228,328.645 367.561,328.978 367,329.5C 365.936,333.415 367.436,335.582 371.5,336C 383.186,337.87 394.852,339.87 406.5,342C 418.507,342.242 430.507,342.242 442.5,342C 449.131,344.395 452.465,349.228 452.5,356.5C 451.854,364.98 447.521,370.48 439.5,373C 423.773,377.438 407.773,379.438 391.5,379C 380.51,376.836 370.51,372.502 361.5,366C 355.324,360.99 349.657,355.49 344.5,349.5C 343.167,350.167 342.167,351.167 341.5,352.5C 342.851,355.196 344.684,357.53 347,359.5C 347.711,361.367 347.211,362.867 345.5,364C 333.69,370.58 321.023,373.414 307.5,372.5C 292.811,371.664 278.145,370.497 263.5,369C 239.497,368.783 215.497,368.783 191.5,369C 184.732,367.855 178.399,365.522 172.5,362C 165.668,355.513 164.835,348.346 170,340.5C 176.461,336.019 183.294,332.186 190.5,329C 192.727,326.436 194.561,323.603 196,320.5C 197.514,307.817 199.181,295.151 201,282.5C 205.626,279.412 206.626,275.412 204,270.5C 192.42,254.341 181.087,238.008 170,221.5C 166.137,209.374 165.47,197.04 168,184.5C 169.706,182.145 172.04,180.811 175,180.5C 180.962,180.929 185.629,183.596 189,188.5C 195.226,201.127 203.059,212.627 212.5,223C 215.879,225.225 217.713,224.392 218,220.5C 203.054,205.689 195.054,187.689 194,166.5C 192,140.844 198.333,117.511 213,96.5C 216.97,91.5246 221.803,87.6912 227.5,85C 230.167,84.3333 232.833,84.3333 235.5,85C 237.461,88.2148 238.627,91.7148 239,95.5C 240.562,97.9104 242.729,99.2438 245.5,99.5C 261.08,97.7748 275.747,93.2748 289.5,86C 292.665,83.6653 295.665,81.1653 298.5,78.5 Z"/></g>
<g><path style="opacity:1" fill="#929292" d="M 192.5,117.5 C 193.675,117.281 194.675,117.614 195.5,118.5C 191.942,126.52 189.442,134.853 188,143.5C 184.199,144.515 180.366,144.349 176.5,143C 172.364,140.324 171.531,136.824 174,132.5C 179.197,126.119 185.364,121.119 192.5,117.5 Z"/></g>
<g><path style="opacity:1" fill="#8d8d8d" d="M 165.5,173.5 C 167.429,173.231 169.095,173.731 170.5,175C 165.814,178.365 162.647,182.865 161,188.5C 160.581,197.717 161.081,206.884 162.5,216C 159.71,219.331 156.877,219.164 154,215.5C 151.579,208.015 150.912,200.348 152,192.5C 155.333,187.167 158.667,181.833 162,176.5C 163.145,175.364 164.312,174.364 165.5,173.5 Z"/></g>
<g><path style="opacity:0.992" fill="#c0c0c0" d="M 382.5,212.5 C 382.5,213.167 382.167,213.5 381.5,213.5C 378.464,204.239 375.964,194.906 374,185.5C 377.543,194.294 380.376,203.294 382.5,212.5 Z"/></g>
<g><path style="opacity:0.885" fill="#040404" d="M 122.5,209.5 C 135.09,210.286 139.59,216.952 136,229.5C 130.901,254.469 116.401,262.302 92.5,253C 86.3957,248.08 84.5624,241.913 87,234.5C 93.7711,218.884 105.604,210.551 122.5,209.5 Z"/></g>
<g><path style="opacity:0.992" fill="#818181" d="M 382.5,212.5 C 384.757,217.873 385.924,223.54 386,229.5C 384.797,224.062 383.297,218.729 381.5,213.5C 382.167,213.5 382.5,213.167 382.5,212.5 Z"/></g>
<g><path style="opacity:1" fill="#939393" d="M 119.5,215.5 C 129.101,214.606 132.935,218.939 131,228.5C 127.966,238.865 121.466,246.032 111.5,250C 106.513,250.003 101.513,249.669 96.5,249C 90.7922,243.993 89.9589,238.159 94,231.5C 100.289,222.449 108.789,217.116 119.5,215.5 Z"/></g>
<g><path style="opacity:1" fill="#949494" d="M 169.5,238.5 C 172.97,237.875 175.804,238.875 178,241.5C 184.827,250.996 190.827,260.996 196,271.5C 196.667,274.833 196.667,278.167 196,281.5C 183.187,275.933 172.187,267.933 163,257.5C 160.064,249.38 162.231,243.047 169.5,238.5 Z"/></g>
<g><path style="opacity:0.852" fill="#000000" d="M 56.5,297.5 C 83.5,297.5 110.5,297.5 137.5,297.5C 138.892,300.025 138.558,302.192 136.5,304C 110.167,304.667 83.8333,304.667 57.5,304C 52.5933,302.46 52.26,300.293 56.5,297.5 Z"/></g>
<g><path style="opacity:1" fill="#919191" d="M 359.5,371.5 C 359.897,370.475 360.563,370.308 361.5,371C 368.332,375.584 375.332,379.917 382.5,384C 405.146,385.418 427.48,383.585 449.5,378.5C 449.266,388.237 444.266,393.737 434.5,395C 405.429,399.473 380.429,391.64 359.5,371.5 Z"/></g>
</svg>
