<?xml version="1.0" encoding="UTF-8"?>
<!DOCTYPE svg PUBLIC "-//W3C//DTD SVG 1.1//EN" "http://www.w3.org/Graphics/SVG/1.1/DTD/svg11.dtd">
<svg xmlns="http://www.w3.org/2000/svg" version="1.1" width="512px" height="512px" style="shape-rendering:geometricPrecision; text-rendering:geometricPrecision; image-rendering:optimizeQuality; fill-rule:evenodd; clip-rule:evenodd" xmlns:xlink="http://www.w3.org/1999/xlink">
<g><path style="opacity:0.906" fill="#040404" d="M 266.5,85.5 C 274.507,85.3336 282.507,85.5003 290.5,86C 306.473,93.3168 321.806,101.65 336.5,111C 342.373,115.575 347.206,121.075 351,127.5C 360,142.833 369,158.167 378,173.5C 392.376,214.259 399.542,256.092 399.5,299C 425.36,299.82 451.193,299.32 477,297.5C 479.917,297.335 482.583,298.002 485,299.5C 485.595,300.899 485.428,302.232 484.5,303.5C 476.456,304.341 468.456,305.507 460.5,307C 441.483,307.208 422.483,307.208 403.5,307C 400.768,307.398 398.935,308.898 398,311.5C 394.151,318.551 390.984,325.884 388.5,333.5C 388.818,334.647 389.484,335.481 390.5,336C 405.202,339.54 419.869,343.207 434.5,347C 454.658,351.842 462.825,364.342 459,384.5C 454.635,393.94 447.135,398.106 436.5,397C 426.5,397.667 416.5,397.667 406.5,397C 387.326,391.246 369.66,382.579 353.5,371C 350.167,370.333 346.833,370.333 343.5,371C 331.207,376.192 318.374,378.692 305,378.5C 285.495,376.87 265.995,375.203 246.5,373.5C 237.457,373.857 228.457,374.69 219.5,376C 204.421,377.762 189.755,376.095 175.5,371C 161.193,363.492 157.359,352.325 164,337.5C 170.273,331.612 177.44,327.112 185.5,324C 187.874,321.961 189.874,319.628 191.5,317C 190.667,316.167 189.833,315.333 189,314.5C 188.326,311.078 187.16,307.911 185.5,305C 175.469,304.495 165.469,303.662 155.5,302.5C 151.161,302.361 146.994,303.028 143,304.5C 139.238,300.384 140.072,297.551 145.5,296C 151.237,295.211 156.903,295.544 162.5,297C 169.833,297.667 177.167,297.667 184.5,297C 185,296.5 185.5,296 186,295.5C 186.014,289.317 187.014,283.317 189,277.5C 192.333,271.5 195.667,265.5 199,259.5C 203.934,249.768 204.6,239.768 201,229.5C 191.168,209.357 187.001,188.19 188.5,166C 188.357,162.072 187.69,158.239 186.5,154.5C 186.673,152.962 187.006,151.462 187.5,150C 187.095,149.055 186.428,148.388 185.5,148C 180.428,147.322 175.428,146.322 170.5,145C 166.158,139.794 165.325,133.96 168,127.5C 176.776,115.41 188.61,108.244 203.5,106C 216.253,105.984 228.92,104.984 241.5,103C 242.833,102.333 244.167,101.667 245.5,101C 248.022,96.9659 251.022,93.2992 254.5,90C 258.715,88.7659 262.715,87.2659 266.5,85.5 Z"/></g>
<g><path style="opacity:1" fill="#f7f7f7" d="M 377.5,331.5 C 376.876,331.083 376.543,330.416 376.5,329.5C 381.708,307.073 382.875,284.406 380,261.5C 374.107,228.032 364.44,195.698 351,164.5C 336.886,137.386 316.386,116.553 289.5,102C 283.343,99.7105 277.009,98.2105 270.5,97.5C 268.37,96.2895 266.37,94.9561 264.5,93.5C 287.679,91.058 308.346,97.2247 326.5,112C 351.173,135.473 368.673,163.64 379,196.5C 389.397,231.472 393.397,267.139 391,303.5C 388.483,313.937 383.983,323.27 377.5,331.5 Z"/></g>
<g><path style="opacity:0.999" fill="#8d8d8d" d="M 264.5,93.5 C 266.37,94.9561 268.37,96.2895 270.5,97.5C 265.909,97.8022 261.409,98.4689 257,99.5C 257.737,95.6181 260.237,93.6181 264.5,93.5 Z"/></g>
<g><path style="opacity:1" fill="#969696" d="M 270.5,97.5 C 277.009,98.2105 283.343,99.7105 289.5,102C 316.386,116.553 336.886,137.386 351,164.5C 364.44,195.698 374.107,228.032 380,261.5C 382.875,284.406 381.708,307.073 376.5,329.5C 376.543,330.416 376.876,331.083 377.5,331.5C 376.428,333.571 374.761,334.905 372.5,335.5C 370.218,334.777 367.884,334.443 365.5,334.5C 365.082,338.251 366.749,340.418 370.5,341C 394.863,345.506 418.863,351.506 442.5,359C 451.021,364.229 453.855,371.729 451,381.5C 450.654,383.848 449.487,385.681 447.5,387C 406.373,396.847 372.706,385.18 346.5,352C 345.207,351.51 343.873,351.343 342.5,351.5C 342.34,353.199 342.506,354.866 343,356.5C 345.554,358.603 346.054,361.103 344.5,364C 332.434,370.147 319.601,372.981 306,372.5C 286.395,370.248 266.728,368.581 247,367.5C 228.513,368.755 210.013,369.255 191.5,369C 184.189,367.897 177.522,365.231 171.5,361C 164.978,353.231 164.978,345.565 171.5,338C 175.443,335.196 179.777,333.196 184.5,332C 192.998,323.493 203.165,319.326 215,319.5C 217.271,309.349 221.105,299.849 226.5,291C 225.055,287.863 223.222,287.697 221,290.5C 215.91,298.507 212.077,307.007 209.5,316C 202.899,317.879 197.732,316.046 194,310.5C 191.262,301.915 190.929,293.248 193,284.5C 196.894,275.608 201.228,266.941 206,258.5C 208.336,252.993 210.169,247.326 211.5,241.5C 203.33,221.156 197.497,200.156 194,178.5C 193.418,163.468 193.418,148.468 194,133.5C 192.951,132.483 191.784,132.316 190.5,133C 189.594,135.447 188.761,137.947 188,140.5C 187.044,141.894 185.711,142.561 184,142.5C 179.959,141.6 176.292,139.933 173,137.5C 172.333,135.5 172.333,133.5 173,131.5C 178.92,122.297 187.086,116.13 197.5,113C 222.213,112.225 246.38,108.392 270,101.5C 270.49,100.207 270.657,98.8734 270.5,97.5 Z"/></g>
<g><path style="opacity:0.87" fill="#020202" d="M 126.5,230.5 C 131.123,229.408 132.956,231.075 132,235.5C 127.412,236.863 122.912,238.53 118.5,240.5C 117.339,242.378 118.006,243.378 120.5,243.5C 125.95,241.209 131.283,238.709 136.5,236C 142.369,234.193 148.369,233.359 154.5,233.5C 154.822,235.722 154.155,237.556 152.5,239C 145.238,239.975 138.238,241.975 131.5,245C 128.438,246.061 125.938,247.894 124,250.5C 121.001,258.13 118.001,265.797 115,273.5C 103.879,285.5 91.0452,287.666 76.5,280C 73.0904,276.101 71.9237,271.601 73,266.5C 77.5338,250.633 88.0338,242.133 104.5,241C 111.54,236.645 118.873,233.145 126.5,230.5 Z"/></g>
<g><path style="opacity:1" fill="#939393" d="M 106.5,245.5 C 110.49,244.616 113.323,245.949 115,249.5C 116.148,263.025 110.314,272.192 97.5,277C 92.3822,277.888 87.3822,277.555 82.5,276C 79.9816,274.13 78.6482,271.63 78.5,268.5C 83.0156,254.986 92.3489,247.319 106.5,245.5 Z"/></g>
<g><path style="opacity:0.816" fill="#000000" d="M 55.5,297.5 C 82.8333,297.5 110.167,297.5 137.5,297.5C 137.33,298.822 137.663,299.989 138.5,301C 137.833,302 137.167,303 136.5,304C 110.167,304.667 83.8333,304.667 57.5,304C 53.0986,302.963 52.432,300.796 55.5,297.5 Z"/></g>
</svg>
