<?xml version="1.0" encoding="UTF-8"?>
<!DOCTYPE svg PUBLIC "-//W3C//DTD SVG 1.1//EN" "http://www.w3.org/Graphics/SVG/1.1/DTD/svg11.dtd">
<svg xmlns="http://www.w3.org/2000/svg" version="1.1" width="512px" height="512px" style="shape-rendering:geometricPrecision; text-rendering:geometricPrecision; image-rendering:optimizeQuality; fill-rule:evenodd; clip-rule:evenodd" xmlns:xlink="http://www.w3.org/1999/xlink">
<g><path style="opacity:0.904" fill="#030303" d="M 304.5,65.5 C 311.97,63.8235 317.803,66.1568 322,72.5C 324.414,80.0747 327.414,87.408 331,94.5C 338,104.833 345,115.167 352,125.5C 355.606,132.379 358.939,139.379 362,146.5C 372.134,179.369 381.8,212.369 391,245.5C 393.334,262.864 394.667,280.198 395,297.5C 395.5,298 396,298.5 396.5,299C 398.5,299.167 400.5,299.333 402.5,299.5C 416.496,298.3 430.496,298.3 444.5,299.5C 454.013,299.017 463.513,298.35 473,297.5C 477.194,297.31 481.194,297.977 485,299.5C 485.442,302.74 483.942,304.573 480.5,305C 454.204,306.924 427.871,307.924 401.5,308C 392.868,312.889 389.368,320.056 391,329.5C 399.903,332.29 409.07,333.957 418.5,334.5C 426.491,333.608 434.491,333.442 442.5,334C 454.559,336.567 460.559,344.067 460.5,356.5C 460.211,370.6 453.211,379.1 439.5,382C 420.219,384.195 400.886,384.861 381.5,384C 371.938,378.262 362.272,372.762 352.5,367.5C 333.646,377.365 313.646,380.865 292.5,378C 279.407,375.748 266.241,374.248 253,373.5C 231.531,375.284 210.031,375.784 188.5,375C 182.232,373.799 176.232,371.799 170.5,369C 161.264,361.953 158.431,352.786 162,341.5C 163.4,338.098 165.567,335.264 168.5,333C 174.081,330.14 179.748,327.474 185.5,325C 192.926,318.185 194.259,310.352 189.5,301.5C 185.698,303.924 181.531,304.924 177,304.5C 169.327,303.907 161.661,303.24 154,302.5C 150.483,302.358 147.15,303.024 144,304.5C 143.228,304.355 142.561,304.022 142,303.5C 140.174,296.842 142.674,294.175 149.5,295.5C 161.456,297.188 173.456,297.688 185.5,297C 188.196,296.31 190.363,294.81 192,292.5C 197.528,283.676 197.861,274.676 193,265.5C 184.667,253.167 176.333,240.833 168,228.5C 164.919,224.65 161.086,223.65 156.5,225.5C 154.143,224.905 151.977,223.905 150,222.5C 142.839,205.93 144.506,190.263 155,175.5C 157.537,172.628 160.37,170.128 163.5,168C 166.167,167.333 168.833,167.333 171.5,168C 175.833,171 180.167,174 184.5,177C 186.402,178.301 188.402,178.968 190.5,179C 188.205,163.559 188.039,148.059 190,132.5C 195.667,113.994 204.834,97.4939 217.5,83C 231.875,73.6779 241.375,77.1779 246,93.5C 256.874,90.9237 267.707,88.0904 278.5,85C 287.414,78.7226 296.08,72.2226 304.5,65.5 Z"/></g>
<g><path style="opacity:1" fill="#f8f8f8" d="M 376.5,330.5 C 375.939,329.092 375.605,327.592 375.5,326C 380.276,291.17 377.442,257.003 367,223.5C 357.875,200.124 349.541,176.458 342,152.5C 335.476,137.439 326.476,124.105 315,112.5C 308.159,101.818 302.659,90.485 298.5,78.5C 301.923,73.6254 306.59,71.7921 312.5,73C 313.667,74.1667 314.833,75.3333 316,76.5C 318.943,84.6622 322.276,92.6622 326,100.5C 333.822,110.145 341.155,120.145 348,130.5C 353.161,140.488 357.494,150.822 361,161.5C 368.337,186.85 375.67,212.183 383,237.5C 390.564,266.598 390.231,295.598 382,324.5C 381.285,327.641 379.452,329.641 376.5,330.5 Z"/></g>
<g><path style="opacity:1" fill="#969696" d="M 298.5,78.5 C 302.659,90.485 308.159,101.818 315,112.5C 326.476,124.105 335.476,137.439 342,152.5C 349.541,176.458 357.875,200.124 367,223.5C 377.442,257.003 380.276,291.17 375.5,326C 375.605,327.592 375.939,329.092 376.5,330.5C 373.819,330.538 371.319,329.871 369,328.5C 368.228,328.645 367.561,328.978 367,329.5C 365.936,333.415 367.436,335.582 371.5,336C 383.186,337.87 394.852,339.87 406.5,342C 418.507,342.242 430.507,342.242 442.5,342C 449.131,344.395 452.465,349.228 452.5,356.5C 451.854,364.98 447.521,370.48 439.5,373C 423.773,377.438 407.773,379.438 391.5,379C 380.51,376.836 370.51,372.502 361.5,366C 355.324,360.99 349.657,355.49 344.5,349.5C 343.167,350.167 342.167,351.167 341.5,352.5C 342.851,355.196 344.684,357.53 347,359.5C 347.711,361.367 347.211,362.867 345.5,364C 333.69,370.58 321.023,373.414 307.5,372.5C 292.811,371.664 278.145,370.497 263.5,369C 239.497,368.783 215.497,368.783 191.5,369C 184.732,367.855 178.399,365.522 172.5,362C 165.668,355.513 164.835,348.346 170,340.5C 176.461,336.019 183.294,332.186 190.5,329C 192.727,326.436 194.561,323.603 196,320.5C 197.514,307.817 199.181,295.151 201,282.5C 205.626,279.412 206.626,275.412 204,270.5C 192.42,254.341 181.087,238.008 170,221.5C 166.137,209.374 165.47,197.04 168,184.5C 169.706,182.145 172.04,180.811 175,180.5C 180.962,180.929 185.629,183.596 189,188.5C 195.226,201.127 203.059,212.627 212.5,223C 215.879,225.225 217.713,224.392 218,220.5C 203.054,205.689 195.054,187.689 194,166.5C 192,140.844 198.333,117.511 213,96.5C 216.97,91.5246 221.803,87.6912 227.5,85C 230.167,84.3333 232.833,84.3333 235.5,85C 237.461,88.2148 238.627,91.7148 239,95.5C 240.562,97.9104 242.729,99.2438 245.5,99.5C 261.08,97.7748 275.747,93.2748 289.5,86C 292.665,83.6653 295.665,81.1653 298.5,78.5 Z"/></g>
<g><path style="opacity:1" fill="#8d8d8d" d="M 165.5,173.5 C 167.429,173.231 169.095,173.731 170.5,175C 165.814,178.365 162.647,182.865 161,188.5C 160.581,197.717 161.081,206.884 162.5,216C 159.71,219.331 156.877,219.164 154,215.5C 151.579,208.015 150.912,200.348 152,192.5C 155.333,187.167 158.667,181.833 162,176.5C 163.145,175.364 164.312,174.364 165.5,173.5 Z"/></g>
<g><path style="opacity:0.81" fill="#000000" d="M 56.5,297.5 C 83.5,297.5 110.5,297.5 137.5,297.5C 138.892,300.025 138.558,302.192 136.5,304C 110.167,304.667 83.8333,304.667 57.5,304C 52.5933,302.46 52.26,300.293 56.5,297.5 Z"/></g>
</svg>
