<?xml version="1.0" encoding="UTF-8"?>
<!DOCTYPE svg PUBLIC "-//W3C//DTD SVG 1.1//EN" "http://www.w3.org/Graphics/SVG/1.1/DTD/svg11.dtd">
<svg xmlns="http://www.w3.org/2000/svg" version="1.1" width="512px" height="512px" style="shape-rendering:geometricPrecision; text-rendering:geometricPrecision; image-rendering:optimizeQuality; fill-rule:evenodd; clip-rule:evenodd" xmlns:xlink="http://www.w3.org/1999/xlink">
<g><path style="opacity:0.916" fill="#030303" d="M 347.5,76.5 C 356.111,74.3922 362.611,77.0589 367,84.5C 374.066,101.365 379.733,118.698 384,136.5C 389.156,175.899 394.822,215.233 401,254.5C 401.739,268.9 401.406,283.234 400,297.5C 400.5,298 401,298.5 401.5,299C 428.505,298.713 455.505,298.38 482.5,298C 485.993,299.478 486.326,301.478 483.5,304C 475.122,304.625 466.789,305.625 458.5,307C 440.526,306.837 422.526,307.171 404.5,308C 398.652,312.517 396.318,318.35 397.5,325.5C 413.122,326.318 428.789,326.818 444.5,327C 462.391,331.616 467.891,342.449 461,359.5C 454.79,366.689 446.957,370.855 437.5,372C 419.167,372.667 400.833,372.667 382.5,372C 375.796,371.026 369.129,369.859 362.5,368.5C 354.384,371.817 346.051,374.65 337.5,377C 323.267,379.435 308.933,380.101 294.5,379C 281.445,376.463 268.279,374.63 255,373.5C 239.527,375.041 224.027,375.541 208.5,375C 193.696,373.734 180.362,368.734 168.5,360C 157.625,348.992 154.458,336.158 159,321.5C 160.624,316.056 164.124,312.556 169.5,311C 176.492,311.717 182.492,309.717 187.5,305C 175.958,304.681 164.458,303.848 153,302.5C 149.302,302.309 145.802,302.976 142.5,304.5C 139.965,301.958 139.965,299.458 142.5,297C 145.075,296.042 147.741,295.542 150.5,295.5C 162.452,297.24 174.452,297.74 186.5,297C 193.307,295.85 197.807,292.017 200,285.5C 201.288,264.217 201.955,242.884 202,221.5C 204.695,213.278 207.529,205.111 210.5,197C 208.835,192.002 207.168,187.002 205.5,182C 208.581,173.669 212.081,165.503 216,157.5C 220.888,138.5 227.555,120.167 236,102.5C 241.192,93.3083 248.358,86.1416 257.5,81C 261.526,79.2057 265.526,79.2057 269.5,81C 273.664,83.6733 277.664,86.5066 281.5,89.5C 283.5,89 285.5,88.5 287.5,88C 299.833,87.6667 312.167,87.3333 324.5,87C 326.878,86.4888 329.212,85.8221 331.5,85C 336.54,81.317 341.873,78.4837 347.5,76.5 Z"/></g>
<g><path style="opacity:1" fill="#f8f8f8" d="M 381.5,328.5 C 383.019,306.19 383.519,283.856 383,261.5C 380.959,241.96 376.626,222.96 370,204.5C 374.411,175.225 369.078,147.892 354,122.5C 347.973,112.451 340.973,103.118 333,94.5C 332.517,93.552 332.351,92.552 332.5,91.5C 339.632,84.7342 347.965,82.5676 357.5,85C 361.446,88.387 364.28,92.5537 366,97.5C 377.84,132.203 384.84,167.87 387,204.5C 391.224,226.849 394.057,249.349 395.5,272C 395.733,290.77 392.566,308.936 386,326.5C 384.89,328.037 383.39,328.703 381.5,328.5 Z"/></g>
<g><path style="opacity:1" fill="#969696" d="M 332.5,91.5 C 332.351,92.552 332.517,93.552 333,94.5C 340.973,103.118 347.973,112.451 354,122.5C 369.078,147.892 374.411,175.225 370,204.5C 376.626,222.96 380.959,241.96 383,261.5C 383.519,283.856 383.019,306.19 381.5,328.5C 377.5,328.167 373.5,327.833 369.5,327.5C 368.974,330.808 370.307,332.974 373.5,334C 397.55,334.04 421.55,334.706 445.5,336C 455.91,339.312 458.743,345.812 454,355.5C 448.512,360.502 442.012,363.002 434.5,363C 411.955,365.818 389.621,364.818 367.5,360C 361.221,357.778 357.221,353.444 355.5,347C 354.207,346.51 352.873,346.343 351.5,346.5C 351.36,350.164 352.027,353.664 353.5,357C 353.385,358.895 352.718,360.562 351.5,362C 338.434,369.266 324.434,372.766 309.5,372.5C 295.128,371.745 280.794,370.578 266.5,369C 246.491,368.576 226.491,368.576 206.5,369C 195.631,366.399 185.298,362.399 175.5,357C 163.415,348.064 160.248,336.564 166,322.5C 168.936,317.296 173.436,315.13 179.5,316C 187.428,313.743 193.261,308.909 197,301.5C 202.001,293.494 205.334,284.828 207,275.5C 207.471,263.663 207.304,251.829 206.5,240C 206.001,230.497 207.501,221.33 211,212.5C 217.121,201.087 223.621,189.921 230.5,179C 232.715,177.956 235.048,177.29 237.5,177C 240.158,173.343 243.158,170.009 246.5,167C 252.848,165.76 257.014,168.26 259,174.5C 260.936,180.152 260.936,185.818 259,191.5C 252.755,199.657 246.755,207.99 241,216.5C 240.333,219.167 240.333,221.833 241,224.5C 242.079,226.394 243.413,226.727 245,225.5C 245.084,221.565 246.084,217.898 248,214.5C 254.438,207.396 260.105,199.73 265,191.5C 267.034,185.392 266.701,179.392 264,173.5C 260.461,166.25 256.294,159.417 251.5,153C 249.1,151.299 246.433,150.466 243.5,150.5C 237.118,151.68 230.784,153.013 224.5,154.5C 227.244,136.768 233.078,120.101 242,104.5C 245.327,98.6931 249.494,93.5264 254.5,89C 264.262,83.0324 271.928,85.0324 277.5,95C 283.005,95.7956 288.338,95.129 293.5,93C 302.842,92.4336 312.175,92.6003 321.5,93.5C 325.393,93.7019 329.06,93.0353 332.5,91.5 Z"/></g>
<g><path style="opacity:1" fill="#8e8e8e" d="M 241.5,155.5 C 246.825,154.314 249.825,156.314 250.5,161.5C 246.781,161.002 243.447,161.836 240.5,164C 239.084,166.835 237.417,169.502 235.5,172C 230.829,170.401 226.995,171.568 224,175.5C 222,179.5 220,183.5 218,187.5C 216.062,188.86 214.396,188.527 213,186.5C 211.927,175.479 216.093,166.979 225.5,161C 230.844,158.841 236.177,157.008 241.5,155.5 Z"/></g>
<g><path style="opacity:0.817" fill="#000000" d="M 56.5,297.5 C 83.1687,297.333 109.835,297.5 136.5,298C 139.167,300 139.167,302 136.5,304C 110.167,304.667 83.8333,304.667 57.5,304C 52.5933,302.46 52.26,300.293 56.5,297.5 Z"/></g>
</svg>
