<?xml version="1.0" encoding="UTF-8"?>
<!DOCTYPE svg PUBLIC "-//W3C//DTD SVG 1.1//EN" "http://www.w3.org/Graphics/SVG/1.1/DTD/svg11.dtd">
<svg xmlns="http://www.w3.org/2000/svg" version="1.1" width="512px" height="512px" style="shape-rendering:geometricPrecision; text-rendering:geometricPrecision; image-rendering:optimizeQuality; fill-rule:evenodd; clip-rule:evenodd" xmlns:xlink="http://www.w3.org/1999/xlink">
<g><path style="opacity:0.929" fill="#030303" d="M 335.5,76.5 C 343.507,76.3336 351.507,76.5003 359.5,77C 364.578,80.6415 368.078,85.4748 370,91.5C 377.7,111.266 383.366,131.599 387,152.5C 390.359,186.679 395.026,220.679 401,254.5C 401.739,268.9 401.406,283.234 400,297.5C 401.299,298.98 402.966,299.646 405,299.5C 430.827,298.523 456.66,298.023 482.5,298C 486.64,301.278 485.973,303.612 480.5,305C 455.219,307.061 429.886,308.061 404.5,308C 398.036,312.845 396.036,318.845 398.5,326C 413.833,326.333 429.167,326.667 444.5,327C 462.9,331.965 468.233,343.132 460.5,360.5C 464.581,380.583 456.581,389.083 436.5,386C 432.185,383.227 427.518,381.227 422.5,380C 400.167,380.453 378.501,376.953 357.5,369.5C 337.506,378.942 316.506,382.109 294.5,379C 270.603,372.506 246.603,372.006 222.5,377.5C 209.225,375.913 196.225,373.08 183.5,369C 177.251,365.102 170.584,362.102 163.5,360C 159.51,358.01 157.01,354.843 156,350.5C 155.05,344.68 155.55,339.013 157.5,333.5C 156.49,324.758 159.49,317.591 166.5,312C 173.769,311.953 180.102,309.62 185.5,305C 174.627,304.628 163.794,303.794 153,302.5C 148.931,302.351 145.098,303.017 141.5,304.5C 139.733,300.2 141.067,297.367 145.5,296C 158.464,297.031 171.464,297.364 184.5,297C 187.911,296.883 190.411,295.383 192,292.5C 194.948,284.425 196.615,276.092 197,267.5C 197.333,251.833 197.667,236.167 198,220.5C 199.95,212.612 202.45,204.946 205.5,197.5C 204.251,192.507 202.584,187.673 200.5,183C 203.244,174.676 206.411,166.51 210,158.5C 215,142.167 220,125.833 225,109.5C 228.104,101.833 231.771,94.5001 236,87.5C 238.564,85.2728 241.397,83.4394 244.5,82C 251.096,81.8265 257.596,80.9932 264,79.5C 269.815,80.647 274.649,83.4803 278.5,88C 279.5,88.1667 280.5,88.3333 281.5,88.5C 292.112,85.2605 302.779,84.9271 313.5,87.5C 322.26,86.4536 329.593,82.7869 335.5,76.5 Z"/></g>
<g><path style="opacity:1" fill="#f7f7f7" d="M 378.5,333.5 C 377.848,332.551 377.514,331.385 377.5,330C 381.899,299.405 381.399,268.905 376,238.5C 372.864,226.094 369.53,213.761 366,201.5C 368.532,176.345 363.865,152.678 352,130.5C 343.807,116.77 334.641,103.77 324.5,91.5C 330.796,85.8472 338.129,83.3472 346.5,84C 349.675,86.843 352.509,90.0097 355,93.5C 364.144,109.118 370.478,125.785 374,143.5C 379.774,180.48 385.441,217.48 391,254.5C 394.955,278.907 392.622,302.573 384,325.5C 382.884,328.756 381.051,331.422 378.5,333.5 Z"/></g>
<g><path style="opacity:1" fill="#e2e2e2" d="M 369.5,108.5 C 369.5,109.167 369.167,109.5 368.5,109.5C 364.66,100.319 359.66,91.8194 353.5,84C 357.018,84.4724 359.851,86.3058 362,89.5C 365.388,95.5007 367.888,101.834 369.5,108.5 Z"/></g>
<g><path style="opacity:1" fill="#777777" d="M 262.5,86.5 C 265.634,85.2213 268.634,85.7213 271.5,88C 268.376,88.3032 265.376,87.8032 262.5,86.5 Z"/></g>
<g><path style="opacity:1" fill="#969696" d="M 324.5,91.5 C 334.641,103.77 343.807,116.77 352,130.5C 363.865,152.678 368.532,176.345 366,201.5C 369.53,213.761 372.864,226.094 376,238.5C 381.399,268.905 381.899,299.405 377.5,330C 377.514,331.385 377.848,332.551 378.5,333.5C 376.709,334.787 375.043,336.287 373.5,338C 373.759,339.261 374.426,340.261 375.5,341C 392.864,341.122 410.197,341.788 427.5,343C 438.503,346.249 447.003,352.749 453,362.5C 454.886,369.549 453.053,375.382 447.5,380C 446,380.167 444.5,380.333 443,380.5C 437.391,379.118 431.891,377.285 426.5,375C 405.532,374.118 384.865,371.118 364.5,366C 356.525,363.345 350.358,358.512 346,351.5C 344.167,352 343,353.167 342.5,355C 344.285,357.397 345.951,359.897 347.5,362.5C 347.023,363.478 346.357,364.311 345.5,365C 333.665,370.71 321.165,373.21 308,372.5C 289.198,370.578 270.365,368.911 251.5,367.5C 240.157,368.675 228.824,369.508 217.5,370C 202.561,365.131 187.561,360.465 172.5,356C 162.972,353.776 159.472,347.943 162,338.5C 164.193,331.275 168.026,325.108 173.5,320C 178.788,317.071 184.122,314.238 189.5,311.5C 191.192,309.641 192.692,307.641 194,305.5C 197.071,296.954 199.738,288.288 202,279.5C 202.333,261.167 202.667,242.833 203,224.5C 205.245,214.094 209.245,204.428 215,195.5C 218.394,191.102 221.394,186.435 224,181.5C 226.896,177.939 230.396,175.106 234.5,173C 236.657,171.019 238.324,168.686 239.5,166C 243.744,164.987 247.577,165.82 251,168.5C 255.908,173.982 257.574,180.315 256,187.5C 249.333,197.5 242.667,207.5 236,217.5C 235.333,219.833 235.333,222.167 236,224.5C 237.667,225.833 239.333,225.833 241,224.5C 242.665,215.134 247.332,207.467 255,201.5C 260.902,194.122 262.902,185.789 261,176.5C 256.797,167.921 251.963,159.754 246.5,152C 244.256,151.094 241.923,150.594 239.5,150.5C 232.455,152.011 225.455,153.678 218.5,155.5C 221.95,131.445 230.283,109.278 243.5,89C 247.039,87.4961 250.705,87.1628 254.5,88C 261.389,92.3657 268.889,94.5324 277,94.5C 284.806,93.4401 292.64,92.4401 300.5,91.5C 305.881,91.7763 311.215,92.4429 316.5,93.5C 319.35,93.4363 322.017,92.7696 324.5,91.5 Z"/></g>
<g><path style="opacity:0.992" fill="#9f9f9f" d="M 369.5,108.5 C 371.101,111.55 372.101,114.884 372.5,118.5C 370.796,115.744 369.463,112.744 368.5,109.5C 369.167,109.5 369.5,109.167 369.5,108.5 Z"/></g>
<g><path style="opacity:0.992" fill="#696969" d="M 372.5,118.5 C 374.088,120.527 374.588,122.861 374,125.5C 373.023,123.26 372.523,120.927 372.5,118.5 Z"/></g>
<g><path style="opacity:1" fill="#8e8e8e" d="M 233.5,156.5 C 237.544,155.958 241.211,156.791 244.5,159C 230.8,165.365 220.3,175.199 213,188.5C 212.282,189.451 211.449,189.617 210.5,189C 208.129,187.257 206.795,184.923 206.5,182C 208.087,173.479 212.42,166.812 219.5,162C 224.306,160.237 228.972,158.404 233.5,156.5 Z"/></g>
<g><path style="opacity:0.86" fill="#000000" d="M 56.5,297.5 C 83.1687,297.333 109.835,297.5 136.5,298C 139.167,300 139.167,302 136.5,304C 110.167,304.667 83.8333,304.667 57.5,304C 52.5933,302.46 52.26,300.293 56.5,297.5 Z"/></g>
<g><path style="opacity:0.991" fill="#4a4a4a" d="M 441.5,335.5 C 438.287,335.19 435.287,335.523 432.5,336.5C 430.518,336.005 428.518,335.505 426.5,335C 431.684,334.184 436.684,334.35 441.5,335.5 Z"/></g>
<g><path style="opacity:1" fill="#8f8f8f" d="M 432.5,336.5 C 435.287,335.523 438.287,335.19 441.5,335.5C 449.724,335.897 454.724,340.063 456.5,348C 456.546,349.728 456.046,351.228 455,352.5C 449.315,344.653 441.815,339.32 432.5,336.5 Z"/></g>
</svg>
