<?xml version="1.0" encoding="UTF-8"?>
<!DOCTYPE svg PUBLIC "-//W3C//DTD SVG 1.1//EN" "http://www.w3.org/Graphics/SVG/1.1/DTD/svg11.dtd">
<svg xmlns="http://www.w3.org/2000/svg" version="1.1" width="512px" height="512px" style="shape-rendering:geometricPrecision; text-rendering:geometricPrecision; image-rendering:optimizeQuality; fill-rule:evenodd; clip-rule:evenodd" xmlns:xlink="http://www.w3.org/1999/xlink">
<g><path style="opacity:0.908" fill="#040404" d="M 266.5,76.5 C 275.173,76.3336 283.84,76.5002 292.5,77C 316.551,85.7472 335.718,100.581 350,121.5C 379.583,176.831 394.25,235.831 394,298.5C 404.186,299.939 414.353,299.606 424.5,297.5C 430.421,298.812 436.421,299.479 442.5,299.5C 452.162,298.767 461.829,298.1 471.5,297.5C 476.188,297.287 480.688,297.954 485,299.5C 485.595,300.899 485.428,302.232 484.5,303.5C 476.456,304.341 468.456,305.507 460.5,307C 441.663,307.385 422.83,307.219 404,306.5C 399.523,306.733 396.19,308.733 394,312.5C 391.53,319.409 389.364,326.409 387.5,333.5C 387.637,335.107 388.304,336.441 389.5,337.5C 406.709,345.042 424.709,349.209 443.5,350C 454.732,354.594 460.399,363.094 460.5,375.5C 460.836,385.681 456.169,392.181 446.5,395C 428.833,395.667 411.167,395.667 393.5,395C 378.766,390.265 366.1,382.265 355.5,371C 353.933,369.924 352.266,369.091 350.5,368.5C 331.897,377.933 312.231,381.1 291.5,378C 277.082,375.719 262.582,374.219 248,373.5C 234.506,374.576 221.006,375.576 207.5,376.5C 194.571,376.748 182.237,374.248 170.5,369C 161.443,360.815 158.943,350.981 163,339.5C 164.793,336.705 166.96,334.205 169.5,332C 174.447,329.848 179.447,327.848 184.5,326C 190.031,321.75 190.864,316.583 187,310.5C 185.74,307.572 183.573,305.739 180.5,305C 171.299,304.521 162.132,303.688 153,302.5C 149.465,302.357 146.132,303.024 143,304.5C 139.673,301.116 140.173,298.283 144.5,296C 153.702,295.671 162.869,296.171 172,297.5C 175.62,297.584 179.12,297.084 182.5,296C 183.893,294.829 184.727,293.329 185,291.5C 185.333,287.833 185.667,284.167 186,280.5C 190.732,273.427 195.065,266.094 199,258.5C 202.794,248.723 203.46,238.723 201,228.5C 191.54,200.613 187.207,171.946 188,142.5C 169.584,142.647 163.917,134.314 171,117.5C 184.413,101.359 201.58,94.8588 222.5,98C 230.552,96.5471 238.552,94.8805 246.5,93C 249.5,89.3333 252.5,85.6667 255.5,82C 259.259,80.1207 262.925,78.2874 266.5,76.5 Z"/></g>
<g><path style="opacity:1" fill="#f8f8f8" d="M 376.5,332.5 C 375.191,331.376 374.525,329.876 374.5,328C 378.349,303.493 378.182,278.993 374,254.5C 367.365,221.593 357.698,189.593 345,158.5C 336.76,138.262 324.594,120.762 308.5,106C 297.772,96.6361 285.439,90.4694 271.5,87.5C 267.389,87.7516 263.389,88.2516 259.5,89C 267.84,82.8807 277.174,80.8807 287.5,83C 312.035,89.8643 331.202,104.031 345,125.5C 367.041,168.294 381.041,213.628 387,261.5C 388.311,279.973 387.311,298.306 384,316.5C 382.271,322.286 379.771,327.62 376.5,332.5 Z"/></g>
<g><path style="opacity:1" fill="#969696" d="M 271.5,87.5 C 285.439,90.4694 297.772,96.6361 308.5,106C 324.594,120.762 336.76,138.262 345,158.5C 357.698,189.593 367.365,221.593 374,254.5C 378.182,278.993 378.349,303.493 374.5,328C 374.525,329.876 375.191,331.376 376.5,332.5C 376.778,334.346 376.111,335.68 374.5,336.5C 371.724,334.87 368.724,334.203 365.5,334.5C 365.799,337.642 367.466,339.809 370.5,341C 387.637,348.158 405.304,353.491 423.5,357C 444.424,353.265 453.591,361.765 451,382.5C 448.193,387.158 444.026,389.658 438.5,390C 427.167,390.667 415.833,390.667 404.5,390C 390.856,388.842 378.856,383.842 368.5,375C 360.128,368.295 352.795,360.629 346.5,352C 345.207,351.51 343.873,351.343 342.5,351.5C 342.796,354.917 343.796,358.084 345.5,361C 345.561,362.711 344.894,364.044 343.5,365C 332.314,370.544 320.481,373.044 308,372.5C 286.205,370.322 264.371,368.655 242.5,367.5C 225.53,369.024 208.53,369.524 191.5,369C 184.732,367.855 178.399,365.522 172.5,362C 164.223,353.248 164.556,344.914 173.5,337C 177.677,334.941 182.01,333.274 186.5,332C 193.328,323.896 201.995,319.73 212.5,319.5C 215.301,309.418 219.634,300.085 225.5,291.5C 224.327,288.721 222.493,288.054 220,289.5C 214.552,297.064 210.719,305.398 208.5,314.5C 200.564,318.601 194.73,316.601 191,308.5C 188.414,297.347 189.748,286.68 195,276.5C 202.926,265.646 208.426,253.646 211.5,240.5C 203.957,218.662 198.457,196.329 195,173.5C 194.165,158.081 194.498,142.748 196,127.5C 194.951,126.483 193.784,126.316 192.5,127C 190.765,129.192 189.598,131.692 189,134.5C 188.196,135.804 187.029,136.471 185.5,136.5C 173.062,134.969 170.562,129.302 178,119.5C 183.844,112.648 191.01,107.815 199.5,105C 224.311,104.214 248.478,100.047 272,92.5C 272.64,90.735 272.473,89.0683 271.5,87.5 Z"/></g>
<g><path style="opacity:0.856" fill="#010101" d="M 87.5,270.5 C 98.5776,268.024 104.578,272.358 105.5,283.5C 104.32,287.366 102.986,291.2 101.5,295C 101.645,295.772 101.978,296.439 102.5,297C 113.833,297.333 125.167,297.667 136.5,298C 139.167,300 139.167,302 136.5,304C 123.5,304.333 110.5,304.667 97.5,305C 90.1992,311.548 81.8659,313.214 72.5,310C 67.0116,308.393 61.6783,306.393 56.5,304C 55.1007,302.938 54.1007,301.605 53.5,300C 55.6172,298.23 57.9506,296.73 60.5,295.5C 62.1335,287.717 66.1335,281.55 72.5,277C 77.3668,274.226 82.3668,272.059 87.5,270.5 Z"/></g>
<g><path style="opacity:1" fill="#919191" d="M 88.5,276.5 C 97.8491,274.518 101.349,278.184 99,287.5C 96.0058,295.365 90.8391,301.199 83.5,305C 78.6874,305.42 74.0207,304.754 69.5,303C 65.4791,297.77 65.6458,292.604 70,287.5C 74.8199,281.348 80.9865,277.682 88.5,276.5 Z"/></g>
</svg>
