<?xml version="1.0" encoding="UTF-8"?>
<!DOCTYPE svg PUBLIC "-//W3C//DTD SVG 1.1//EN" "http://www.w3.org/Graphics/SVG/1.1/DTD/svg11.dtd">
<svg xmlns="http://www.w3.org/2000/svg" version="1.1" width="512px" height="512px" style="shape-rendering:geometricPrecision; text-rendering:geometricPrecision; image-rendering:optimizeQuality; fill-rule:evenodd; clip-rule:evenodd" xmlns:xlink="http://www.w3.org/1999/xlink">
<g><path style="opacity:0.912" fill="#030303" d="M 347.5,76.5 C 356.111,74.3922 362.611,77.0589 367,84.5C 374.066,101.365 379.733,118.698 384,136.5C 389.156,175.899 394.822,215.233 401,254.5C 401.739,268.9 401.406,283.234 400,297.5C 400.5,298 401,298.5 401.5,299C 428.505,298.713 455.505,298.38 482.5,298C 486.64,301.278 485.973,303.612 480.5,305C 454.538,306.916 428.538,307.916 402.5,308C 398.572,313.546 396.739,319.713 397,326.5C 404.007,328.369 411.174,328.202 418.5,326C 425.691,322.936 433.025,320.27 440.5,318C 461.56,315.401 469.726,324.568 465,345.5C 459.704,358.128 450.537,366.628 437.5,371C 418.512,376.958 399.179,378.624 379.5,376C 372.337,374.335 365.337,372.168 358.5,369.5C 338.169,378.831 316.836,381.998 294.5,379C 281.445,376.463 268.279,374.63 255,373.5C 239.527,375.041 224.027,375.541 208.5,375C 193.696,373.734 180.362,368.734 168.5,360C 157.625,348.992 154.458,336.158 159,321.5C 163.052,312.235 170.218,308.401 180.5,310C 182.792,308.71 184.792,307.043 186.5,305C 175.293,304.656 164.126,303.823 153,302.5C 149.302,302.309 145.802,302.976 142.5,304.5C 139.965,301.958 139.965,299.458 142.5,297C 145.075,296.042 147.741,295.542 150.5,295.5C 162.452,297.24 174.452,297.74 186.5,297C 193.307,295.85 197.807,292.017 200,285.5C 201.288,264.217 201.955,242.884 202,221.5C 204.695,213.278 207.529,205.111 210.5,197C 208.835,192.002 207.168,187.002 205.5,182C 208.581,173.669 212.081,165.503 216,157.5C 220.888,138.5 227.555,120.167 236,102.5C 241.192,93.3083 248.358,86.1416 257.5,81C 261.526,79.2057 265.526,79.2057 269.5,81C 273.664,83.6733 277.664,86.5066 281.5,89.5C 283.5,89 285.5,88.5 287.5,88C 299.833,87.6667 312.167,87.3333 324.5,87C 326.878,86.4888 329.212,85.8221 331.5,85C 336.54,81.317 341.873,78.4837 347.5,76.5 Z"/></g>
<g><path style="opacity:1" fill="#f7f7f7" d="M 383.5,328.5 C 381.105,325.88 380.105,322.713 380.5,319C 387.007,279.561 383.507,241.061 370,203.5C 374.383,169.73 366.717,139.063 347,111.5C 342.572,105.649 337.906,99.9826 333,94.5C 332.517,93.552 332.351,92.552 332.5,91.5C 339.632,84.7342 347.965,82.5676 357.5,85C 361.446,88.387 364.28,92.5537 366,97.5C 373.524,117.597 378.858,138.263 382,159.5C 385.117,192.32 389.45,224.987 395,257.5C 397.11,277.939 395.11,297.939 389,317.5C 388.19,321.787 386.357,325.454 383.5,328.5 Z"/></g>
<g><path style="opacity:1" fill="#969696" d="M 332.5,91.5 C 332.351,92.552 332.517,93.552 333,94.5C 337.906,99.9826 342.572,105.649 347,111.5C 366.717,139.063 374.383,169.73 370,203.5C 383.507,241.061 387.007,279.561 380.5,319C 380.105,322.713 381.105,325.88 383.5,328.5C 380.325,329.276 376.992,329.443 373.5,329C 372.167,330.667 372.167,332.333 373.5,334C 385,334.833 396.5,335.667 408,336.5C 411.903,336.485 415.736,335.985 419.5,335C 427.283,331.942 434.95,328.608 442.5,325C 454.405,323.572 459.572,328.739 458,340.5C 455.762,348.072 451.262,353.905 444.5,358C 419.555,370.283 393.888,372.283 367.5,364C 361.574,361.239 357.574,356.739 355.5,350.5C 353.955,349.548 352.288,349.215 350.5,349.5C 350.347,352.577 351.014,355.411 352.5,358C 352.357,360.151 351.357,361.818 349.5,363C 332.479,371.615 314.479,374.615 295.5,372C 286.582,370.291 277.582,369.291 268.5,369C 247.826,368.628 227.16,368.628 206.5,369C 191.994,366.162 179.16,359.996 168,350.5C 162.007,340.117 162.007,329.784 168,319.5C 171.351,317.006 175.185,315.84 179.5,316C 186.385,314.444 191.551,310.611 195,304.5C 201.14,295.752 205.14,286.086 207,275.5C 207.405,263.998 207.238,252.498 206.5,241C 205.624,228.749 208.124,217.249 214,206.5C 219,197.833 224,189.167 229,180.5C 231.344,178.226 234.178,177.059 237.5,177C 240.192,174.443 242.525,171.609 244.5,168.5C 247.674,166.031 251.007,165.864 254.5,168C 260.646,174.848 262.146,182.681 259,191.5C 252.755,199.657 246.755,207.99 241,216.5C 240.333,219.167 240.333,221.833 241,224.5C 242.079,226.394 243.413,226.727 245,225.5C 245.084,221.565 246.084,217.898 248,214.5C 254.312,207.875 259.645,200.542 264,192.5C 267.112,176.537 262.612,163.037 250.5,152C 248.466,150.994 246.3,150.494 244,150.5C 237.037,151.831 230.204,153.331 223.5,155C 227.767,133.524 235.934,113.691 248,95.5C 253.673,87.3993 261.173,84.566 270.5,87C 272.598,89.854 274.931,92.5206 277.5,95C 283.005,95.7956 288.338,95.129 293.5,93C 302.842,92.4336 312.175,92.6003 321.5,93.5C 325.393,93.7019 329.06,93.0353 332.5,91.5 Z"/></g>
<g><path style="opacity:1" fill="#8f8f8f" d="M 241.5,155.5 C 245.585,154.659 248.585,155.992 250.5,159.5C 243.897,160.79 239.231,164.457 236.5,170.5C 233.103,171.172 229.77,172.005 226.5,173C 223.527,177.783 220.694,182.617 218,187.5C 214.151,188.523 211.984,186.856 211.5,182.5C 212.97,174.723 216.637,168.223 222.5,163C 228.746,159.98 235.079,157.48 241.5,155.5 Z"/></g>
<g><path style="opacity:0.807" fill="#000000" d="M 55.5,297.5 C 82.8415,297.167 110.175,297.5 137.5,298.5C 139.054,302.295 137.721,304.295 133.5,304.5C 109.339,304.456 85.1724,304.456 61,304.5C 58.41,304.624 56.0767,303.958 54,302.5C 53.3872,300.505 53.8872,298.838 55.5,297.5 Z"/></g>
</svg>
