<?xml version="1.0" encoding="UTF-8"?>
<!DOCTYPE svg PUBLIC "-//W3C//DTD SVG 1.1//EN" "http://www.w3.org/Graphics/SVG/1.1/DTD/svg11.dtd">
<svg xmlns="http://www.w3.org/2000/svg" version="1.1" width="512px" height="512px" style="shape-rendering:geometricPrecision; text-rendering:geometricPrecision; image-rendering:optimizeQuality; fill-rule:evenodd; clip-rule:evenodd" xmlns:xlink="http://www.w3.org/1999/xlink">
<g><path style="opacity:0.909" fill="#030303" d="M 259.5,72.5 C 267.174,72.3336 274.841,72.5003 282.5,73C 302.181,79.6674 319.848,89.6674 335.5,103C 341.848,109.536 347.348,116.703 352,124.5C 381.262,178.807 395.262,236.807 394,298.5C 404.186,299.939 414.353,299.606 424.5,297.5C 430.421,298.812 436.421,299.479 442.5,299.5C 455.472,298.063 468.472,297.563 481.5,298C 485.241,298.403 486.241,300.236 484.5,303.5C 476.456,304.341 468.456,305.507 460.5,307C 441.663,307.385 422.83,307.219 404,306.5C 401.139,307.046 398.473,308.046 396,309.5C 392.285,317.143 389.452,325.143 387.5,333.5C 387.637,335.107 388.304,336.441 389.5,337.5C 397.521,341.229 405.854,344.062 414.5,346C 425.22,347.478 435.886,349.145 446.5,351C 458.528,359.068 462.694,370.235 459,384.5C 456.668,390.164 452.501,393.664 446.5,395C 437.667,395.167 428.833,395.333 420,395.5C 409.777,395.616 399.611,395.116 389.5,394C 376.471,388.821 365.138,381.154 355.5,371C 353.933,369.924 352.266,369.091 350.5,368.5C 336.773,375.932 322.106,379.265 306.5,378.5C 287.157,377.055 267.824,375.388 248.5,373.5C 235.989,374.362 223.489,375.362 211,376.5C 191.983,376.832 175.65,370.499 162,357.5C 157.136,348.25 158.136,339.583 165,331.5C 167.167,329.333 169.333,327.167 171.5,325C 177.052,323.542 182.052,321.042 186.5,317.5C 187.984,312.959 188.651,308.292 188.5,303.5C 176.631,304.831 164.798,304.498 153,302.5C 149.431,302.286 146.098,302.953 143,304.5C 139.629,301.053 140.129,298.22 144.5,296C 154.852,295.902 165.186,296.402 175.5,297.5C 180.582,297.581 185.582,297.081 190.5,296C 192.214,290.57 194.214,285.236 196.5,280C 192.275,274.236 188.275,268.236 184.5,262C 178.654,263.737 173.488,262.57 169,258.5C 158.675,242.221 158.008,225.554 167,208.5C 168.214,206.951 169.714,205.785 171.5,205C 176.563,204.752 181.563,204.085 186.5,203C 189,201.833 190.833,200 192,197.5C 191.987,189.082 190.987,180.749 189,172.5C 190.121,151.23 187.121,130.563 180,110.5C 179.333,107.5 179.333,104.5 180,101.5C 181.171,100.107 182.671,99.2735 184.5,99C 195.833,98.6667 207.167,98.3333 218.5,98C 226.3,97.4223 233.966,96.089 241.5,94C 244.759,92.7894 247.592,90.9561 250,88.5C 252.597,82.7577 255.763,77.4243 259.5,72.5 Z"/></g>
<g><path style="opacity:1" fill="#f8f8f8" d="M 376.5,332.5 C 375.191,331.376 374.525,329.876 374.5,328C 379.65,292.315 377.15,257.148 367,222.5C 360,201.5 353,180.5 346,159.5C 335.365,134.543 319.198,114.043 297.5,98C 286.678,91.2537 275.012,86.7537 262.5,84.5C 262.5,83.5 262.5,82.5 262.5,81.5C 262.577,80.2502 263.244,79.4169 264.5,79C 284.83,79.3329 303.163,85.6662 319.5,98C 336.142,110.776 348.308,126.943 356,146.5C 378.899,195.66 389.232,247.327 387,301.5C 385.786,312.727 382.286,323.061 376.5,332.5 Z"/></g>
<g><path style="opacity:1" fill="#969696" d="M 262.5,81.5 C 262.5,82.5 262.5,83.5 262.5,84.5C 275.012,86.7537 286.678,91.2537 297.5,98C 319.198,114.043 335.365,134.543 346,159.5C 353,180.5 360,201.5 367,222.5C 377.15,257.148 379.65,292.315 374.5,328C 374.525,329.876 375.191,331.376 376.5,332.5C 376.778,334.346 376.111,335.68 374.5,336.5C 371.724,334.87 368.724,334.203 365.5,334.5C 365.799,337.642 367.466,339.809 370.5,341C 387.637,348.158 405.304,353.491 423.5,357C 444.424,353.265 453.591,361.765 451,382.5C 447.934,387.452 443.434,389.952 437.5,390C 426.5,390.667 415.5,390.667 404.5,390C 390.917,388.697 378.917,383.697 368.5,375C 360.128,368.295 352.795,360.629 346.5,352C 345.207,351.51 343.873,351.343 342.5,351.5C 342.796,354.917 343.796,358.084 345.5,361C 345.561,362.711 344.894,364.044 343.5,365C 332.184,369.954 320.351,372.787 308,373.5C 291.218,371.238 274.385,369.405 257.5,368C 237.154,368.002 216.821,368.335 196.5,369C 187.84,367.225 179.84,363.892 172.5,359C 162.872,349.616 163.206,340.616 173.5,332C 177.046,330.826 180.713,330.16 184.5,330C 187.734,328.056 189.9,325.222 191,321.5C 193.244,310.274 196.244,299.274 200,288.5C 202.502,285.657 205.335,283.157 208.5,281C 192.891,269.597 186.058,254.097 188,234.5C 186.053,230.22 183.053,226.887 179,224.5C 177.465,215.747 180.965,209.914 189.5,207C 198.205,205.103 205.372,207.603 211,214.5C 213.525,219.976 215.525,225.643 217,231.5C 220.325,235.849 223.825,236.349 227.5,233C 224.699,230.526 222.199,227.693 220,224.5C 220.33,218.667 218.997,213.334 216,208.5C 211.897,205.573 207.397,203.407 202.5,202C 200.959,200.421 199.792,198.587 199,196.5C 194.267,174.289 193.434,151.955 196.5,129.5C 196.392,128.558 196.059,127.725 195.5,127C 193.075,126.707 191.242,125.541 190,123.5C 187.401,117.722 186.068,111.722 186,105.5C 186.5,105 187,104.5 187.5,104C 216.143,105.077 244.143,101.41 271.5,93C 273.166,89.869 272.166,88.369 268.5,88.5C 264.891,89.204 261.391,90.204 258,91.5C 257.333,90.1667 257.333,88.8333 258,87.5C 260.131,85.8831 261.631,83.8831 262.5,81.5 Z"/></g>
<g><path style="opacity:1" fill="#8d8d8d" d="M 172.5,212.5 C 172.057,217.379 172.557,222.379 174,227.5C 177,230.167 180,232.833 183,235.5C 183.626,239.785 183.126,243.952 181.5,248C 183.607,252.12 182.607,254.953 178.5,256.5C 172.223,252.65 168.39,246.984 167,239.5C 165.823,229.877 167.656,220.877 172.5,212.5 Z"/></g>
<g><path style="opacity:0.776" fill="#000000" d="M 56.5,297.5 C 83.5,297.5 110.5,297.5 137.5,297.5C 138.892,300.025 138.558,302.192 136.5,304C 110.167,304.667 83.8333,304.667 57.5,304C 52.5933,302.46 52.26,300.293 56.5,297.5 Z"/></g>
</svg>
