<?xml version="1.0" encoding="UTF-8"?>
<!DOCTYPE svg PUBLIC "-//W3C//DTD SVG 1.1//EN" "http://www.w3.org/Graphics/SVG/1.1/DTD/svg11.dtd">
<svg xmlns="http://www.w3.org/2000/svg" version="1.1" width="512px" height="512px" style="shape-rendering:geometricPrecision; text-rendering:geometricPrecision; image-rendering:optimizeQuality; fill-rule:evenodd; clip-rule:evenodd" xmlns:xlink="http://www.w3.org/1999/xlink">
<g><path style="opacity:0.906" fill="#040404" d="M 266.5,76.5 C 275.173,76.3336 283.84,76.5002 292.5,77C 316.551,85.7472 335.718,100.581 350,121.5C 379.583,176.831 394.25,235.831 394,298.5C 404.186,299.939 414.353,299.606 424.5,297.5C 430.421,298.812 436.421,299.479 442.5,299.5C 452.162,298.767 461.829,298.1 471.5,297.5C 476.188,297.287 480.688,297.954 485,299.5C 485.595,300.899 485.428,302.232 484.5,303.5C 476.456,304.341 468.456,305.507 460.5,307C 441.663,307.385 422.83,307.219 404,306.5C 399.523,306.733 396.19,308.733 394,312.5C 391.53,319.409 389.364,326.409 387.5,333.5C 387.637,335.107 388.304,336.441 389.5,337.5C 406.709,345.042 424.709,349.209 443.5,350C 454.732,354.594 460.399,363.094 460.5,375.5C 460.836,385.681 456.169,392.181 446.5,395C 428.833,395.667 411.167,395.667 393.5,395C 378.766,390.265 366.1,382.265 355.5,371C 353.933,369.924 352.266,369.091 350.5,368.5C 331.897,377.933 312.231,381.1 291.5,378C 277.245,375.76 262.912,374.26 248.5,373.5C 234.83,374.453 221.163,375.453 207.5,376.5C 194.571,376.748 182.237,374.248 170.5,369C 160.864,360.016 158.698,349.516 164,337.5C 169.564,331.466 176.398,327.633 184.5,326C 186.5,324 188.5,322 190.5,320C 187.302,319.152 184.469,317.652 182,315.5C 181.399,312.363 180.399,309.363 179,306.5C 178.25,305.874 177.416,305.374 176.5,305C 168.511,304.057 160.511,303.223 152.5,302.5C 149.001,302.401 145.668,303.068 142.5,304.5C 139.736,300.945 140.402,298.112 144.5,296C 153.007,296 161.507,296.5 170,297.5C 173.537,297.828 176.703,296.995 179.5,295C 182.803,287.432 186.303,279.932 190,272.5C 196.692,264.115 201.526,254.782 204.5,244.5C 195.496,215.812 189.829,186.479 187.5,156.5C 188.483,151.857 188.65,147.191 188,142.5C 169.584,142.647 163.917,134.314 171,117.5C 184.413,101.359 201.58,94.8588 222.5,98C 230.552,96.5471 238.552,94.8805 246.5,93C 249.5,89.3333 252.5,85.6667 255.5,82C 259.259,80.1207 262.925,78.2874 266.5,76.5 Z"/></g>
<g><path style="opacity:1" fill="#f8f8f8" d="M 376.5,332.5 C 375.191,331.376 374.525,329.876 374.5,328C 378.349,303.493 378.182,278.993 374,254.5C 367.365,221.593 357.698,189.593 345,158.5C 336.76,138.262 324.594,120.762 308.5,106C 297.772,96.6361 285.439,90.4694 271.5,87.5C 267.389,87.7516 263.389,88.2516 259.5,89C 267.84,82.8807 277.174,80.8807 287.5,83C 312.035,89.8643 331.202,104.031 345,125.5C 367.041,168.294 381.041,213.628 387,261.5C 388.311,279.973 387.311,298.306 384,316.5C 382.271,322.286 379.771,327.62 376.5,332.5 Z"/></g>
<g><path style="opacity:1" fill="#969696" d="M 271.5,87.5 C 285.439,90.4694 297.772,96.6361 308.5,106C 324.594,120.762 336.76,138.262 345,158.5C 357.698,189.593 367.365,221.593 374,254.5C 378.182,278.993 378.349,303.493 374.5,328C 374.525,329.876 375.191,331.376 376.5,332.5C 376.778,334.346 376.111,335.68 374.5,336.5C 371.724,334.87 368.724,334.203 365.5,334.5C 365.799,337.642 367.466,339.809 370.5,341C 387.637,348.158 405.304,353.491 423.5,357C 444.424,353.265 453.591,361.765 451,382.5C 447.67,387.749 442.837,390.249 436.5,390C 423.133,390.832 409.799,390.499 396.5,389C 386.061,386.447 376.728,381.781 368.5,375C 360.128,368.295 352.795,360.629 346.5,352C 345.207,351.51 343.873,351.343 342.5,351.5C 342.34,353.199 342.506,354.866 343,356.5C 346.073,359.188 346.24,362.021 343.5,365C 332.626,370.403 321.126,372.903 309,372.5C 286.529,370.442 264.029,368.775 241.5,367.5C 224.884,369.22 208.217,369.72 191.5,369C 184.698,367.845 178.365,365.512 172.5,362C 165.087,354.339 164.753,346.505 171.5,338.5C 176.095,335.466 181.095,333.299 186.5,332C 198.405,319.593 210.738,307.759 223.5,296.5C 223,295.119 222,294.453 220.5,294.5C 218.39,295.054 216.39,295.888 214.5,297C 208.479,302.023 202.812,307.356 197.5,313C 192.421,314.568 188.587,313.068 186,308.5C 185.016,302.307 185.682,296.307 188,290.5C 192.534,280.652 197.867,271.318 204,262.5C 209.129,253.813 210.796,244.48 209,234.5C 199.66,208.134 194.827,180.968 194.5,153C 194.46,144.39 194.96,135.89 196,127.5C 194.951,126.483 193.784,126.316 192.5,127C 190.765,129.192 189.598,131.692 189,134.5C 183.31,136.875 178.31,135.542 174,130.5C 173.333,128.833 173.333,127.167 174,125.5C 179.846,115.316 188.346,108.483 199.5,105C 224.291,104.118 248.458,99.9518 272,92.5C 272.64,90.735 272.473,89.0683 271.5,87.5 Z"/></g>
<g><path style="opacity:0.777" fill="#000000" d="M 56.5,297.5 C 83.1687,297.333 109.835,297.5 136.5,298C 139.167,300 139.167,302 136.5,304C 110.167,304.667 83.8333,304.667 57.5,304C 52.5933,302.46 52.26,300.293 56.5,297.5 Z"/></g>
<g><path style="opacity:0.876" fill="#030303" d="M 56.5,332.5 C 70.6708,330.512 75.8375,336.512 72,350.5C 64.8762,366.322 53.3762,370.489 37.5,363C 35.5559,361.278 34.5559,359.111 34.5,356.5C 36.0595,342.949 43.3928,334.949 56.5,332.5 Z"/></g>
<g><path style="opacity:1" fill="#929292" d="M 57.5,337.5 C 65.5052,336.342 68.3385,339.675 66,347.5C 61.4995,360.431 53.4995,363.431 42,356.5C 40.6323,350.731 42.4656,346.231 47.5,343C 50.7667,340.87 54.1,339.037 57.5,337.5 Z"/></g>
</svg>
