<?xml version="1.0" encoding="UTF-8"?>
<!DOCTYPE svg PUBLIC "-//W3C//DTD SVG 1.1//EN" "http://www.w3.org/Graphics/SVG/1.1/DTD/svg11.dtd">
<svg xmlns="http://www.w3.org/2000/svg" version="1.1" width="512px" height="512px" style="shape-rendering:geometricPrecision; text-rendering:geometricPrecision; image-rendering:optimizeQuality; fill-rule:evenodd; clip-rule:evenodd" xmlns:xlink="http://www.w3.org/1999/xlink">
<g><path style="opacity:0.923" fill="#030303" d="M 335.5,76.5 C 339.846,76.3343 344.179,76.501 348.5,77C 361.7,91.8933 370.866,109.06 376,128.5C 383,168.832 390,209.165 397,249.5C 397.703,265.893 398.37,282.226 399,298.5C 413.256,298.222 427.589,298.555 442,299.5C 452.679,299.038 463.346,298.371 474,297.5C 477.864,297.33 481.531,297.997 485,299.5C 485.782,303.056 484.282,304.889 480.5,305C 455.516,307.581 430.516,308.081 405.5,306.5C 402.341,307.155 399.841,308.822 398,311.5C 396.197,317.242 394.197,322.909 392,328.5C 391.219,329.944 391.386,331.277 392.5,332.5C 402.787,333.31 413.12,333.81 423.5,334C 441.13,336.313 453.63,345.479 461,361.5C 463.493,374.008 459.326,383.508 448.5,390C 443.5,390.667 438.5,390.667 433.5,390C 428.993,385.747 423.66,383.08 417.5,382C 397.928,381.238 378.928,377.572 360.5,371C 356.167,370.333 351.833,370.333 347.5,371C 330.828,378.028 313.495,380.361 295.5,378C 281.224,375.924 266.891,374.424 252.5,373.5C 244.308,373.408 236.308,374.575 228.5,377C 224.833,377.667 221.167,377.667 217.5,377C 201.275,370.592 184.608,365.592 167.5,362C 156.58,357.321 152.746,349.154 156,337.5C 158.751,329.497 162.918,322.33 168.5,316C 174.337,312.582 180.004,308.916 185.5,305C 174.971,304.519 164.471,303.686 154,302.5C 150.188,302.408 146.521,303.075 143,304.5C 139.657,301.154 140.157,298.321 144.5,296C 154.791,295.69 164.958,296.523 175,298.5C 179.471,297.741 183.971,296.908 188.5,296C 190.333,295.5 191.5,294.333 192,292.5C 195.125,284.426 196.125,276.092 195,267.5C 190.427,251.802 187.594,235.802 186.5,219.5C 186.486,212.404 187.819,205.571 190.5,199C 188.358,196.532 185.858,194.365 183,192.5C 179.473,180.726 182.306,170.559 191.5,162C 195.939,158.643 200.939,156.643 206.5,156C 208.286,155.215 209.786,154.049 211,152.5C 214.375,142.638 217.375,132.638 220,122.5C 224.037,110.717 229.037,99.3836 235,88.5C 239.92,81.971 246.42,79.8043 254.5,82C 263.809,87.4942 273.809,89.4942 284.5,88C 294.143,85.0762 303.81,84.9095 313.5,87.5C 322.26,86.4536 329.593,82.7869 335.5,76.5 Z"/></g>
<g><path style="opacity:1" fill="#f7f7f7" d="M 378.5,333.5 C 377.848,332.551 377.514,331.385 377.5,330C 384.4,287.888 380.9,246.722 367,206.5C 369.089,179.684 364.089,154.351 352,130.5C 343.807,116.77 334.641,103.77 324.5,91.5C 330.796,85.8472 338.129,83.3472 346.5,84C 351.736,88.615 355.903,94.115 359,100.5C 365.991,114.141 370.991,128.475 374,143.5C 379.774,180.48 385.441,217.48 391,254.5C 394.804,278.844 392.471,302.51 384,325.5C 382.884,328.756 381.051,331.422 378.5,333.5 Z"/></g>
<g><path style="opacity:1" fill="#969696" d="M 324.5,91.5 C 334.641,103.77 343.807,116.77 352,130.5C 364.089,154.351 369.089,179.684 367,206.5C 380.9,246.722 384.4,287.888 377.5,330C 377.514,331.385 377.848,332.551 378.5,333.5C 376.73,334.764 375.063,336.264 373.5,338C 374.716,339.74 376.382,340.74 378.5,341C 393.121,342.812 407.787,344.145 422.5,345C 433.361,347.342 442.194,352.842 449,361.5C 454.887,383.62 447.72,389.453 427.5,379C 404.472,375.576 381.806,370.576 359.5,364C 358.167,363.333 356.833,362.667 355.5,362C 351.536,358.379 348.036,354.546 345,350.5C 343.268,350.734 342.434,351.734 342.5,353.5C 344.127,356.81 345.793,360.144 347.5,363.5C 335.606,370.293 322.773,373.293 309,372.5C 290.202,370.546 271.368,368.88 252.5,367.5C 240.859,368.998 229.192,369.831 217.5,370C 201.593,364.69 185.593,359.69 169.5,355C 162.026,351.88 159.526,346.38 162,338.5C 165.833,325.333 174.333,316.833 187.5,313C 193.98,306.922 197.813,299.422 199,290.5C 201.182,282.62 201.848,274.62 201,266.5C 198.979,257.082 196.646,247.749 194,238.5C 190.308,221.612 192.641,205.612 201,190.5C 204.333,185.833 208.333,181.833 213,178.5C 210.451,168.398 214.284,163.898 224.5,165C 236.705,170.931 240.538,180.431 236,193.5C 232.333,200.167 228.667,206.833 225,213.5C 224.333,216.5 224.333,219.5 225,222.5C 227.222,225.303 229.055,225.137 230.5,222C 229.507,219.547 229.34,217.047 230,214.5C 237.378,204.909 241.545,194.076 242.5,182C 240.544,168.046 233.211,158.046 220.5,152C 219.892,150.769 219.559,149.436 219.5,148C 223.601,127.625 230.935,108.459 241.5,90.5C 243.504,88.2477 246.004,86.9143 249,86.5C 255.543,88.8537 262.043,91.3537 268.5,94C 274.167,94.6667 279.833,94.6667 285.5,94C 295.765,90.8743 306.098,90.7076 316.5,93.5C 319.35,93.4363 322.017,92.7696 324.5,91.5 Z"/></g>
<g><path style="opacity:1" fill="#8d8d8d" d="M 204.5,161.5 C 206.604,161.201 208.604,161.534 210.5,162.5C 207.95,168.993 205.117,175.326 202,181.5C 199.667,183.167 197.333,184.833 195,186.5C 193.423,192.798 190.756,193.131 187,187.5C 186.653,174.679 192.486,166.013 204.5,161.5 Z"/></g>
<g><path style="opacity:0.825" fill="#000000" d="M 56.5,297.5 C 83.5082,297.167 110.508,297.5 137.5,298.5C 138.953,300.644 138.62,302.477 136.5,304C 110.167,304.667 83.8333,304.667 57.5,304C 52.5933,302.46 52.26,300.293 56.5,297.5 Z"/></g>
</svg>
