<?xml version="1.0" encoding="UTF-8"?>
<!DOCTYPE svg PUBLIC "-//W3C//DTD SVG 1.1//EN" "http://www.w3.org/Graphics/SVG/1.1/DTD/svg11.dtd">
<svg xmlns="http://www.w3.org/2000/svg" version="1.1" width="512px" height="512px" style="shape-rendering:geometricPrecision; text-rendering:geometricPrecision; image-rendering:optimizeQuality; fill-rule:evenodd; clip-rule:evenodd" xmlns:xlink="http://www.w3.org/1999/xlink">
<g><path style="opacity:0.906" fill="#030303" d="M 304.5,65.5 C 311.97,63.8235 317.803,66.1568 322,72.5C 324.414,80.0747 327.414,87.408 331,94.5C 338,104.833 345,115.167 352,125.5C 355.606,132.379 358.939,139.379 362,146.5C 372.134,179.369 381.8,212.369 391,245.5C 393.334,262.864 394.667,280.198 395,297.5C 395.5,298 396,298.5 396.5,299C 398.5,299.167 400.5,299.333 402.5,299.5C 416.496,298.3 430.496,298.3 444.5,299.5C 454.013,299.017 463.513,298.35 473,297.5C 477.194,297.31 481.194,297.977 485,299.5C 485.442,302.74 483.942,304.573 480.5,305C 454.831,307.389 429.165,307.889 403.5,306.5C 399.424,307.079 396.257,309.079 394,312.5C 392.571,318.786 390.738,324.952 388.5,331C 388.759,332.261 389.426,333.261 390.5,334C 398.991,336.413 407.657,337.079 416.5,336C 426.578,331.987 436.912,330.987 447.5,333C 453.333,334.833 457.167,338.667 459,344.5C 460.308,366.202 450.142,378.702 428.5,382C 412.5,382.667 396.5,382.667 380.5,382C 370.323,381.056 361.323,377.389 353.5,371C 352,370.833 350.5,370.667 349,370.5C 341.733,372.255 334.567,374.422 327.5,377C 320.545,378.032 313.545,378.532 306.5,378.5C 286.451,377.421 266.451,375.754 246.5,373.5C 225.831,376.958 205.165,377.124 184.5,374C 165.447,370.611 157.947,359.444 162,340.5C 163.458,338.04 165.291,335.873 167.5,334C 172.554,330.806 177.888,328.139 183.5,326C 191.626,320.125 194.292,312.292 191.5,302.5C 178.53,304.864 165.53,304.864 152.5,302.5C 148.966,302.32 145.632,302.987 142.5,304.5C 139.283,300.208 140.283,297.375 145.5,296C 155.173,296.055 164.839,296.555 174.5,297.5C 178.167,297.333 181.833,297.167 185.5,297C 188.234,296.79 190.734,295.956 193,294.5C 197.158,284.949 197.491,275.282 194,265.5C 186.898,252.961 180.064,240.294 173.5,227.5C 171.651,225.826 169.484,224.826 167,224.5C 162.576,226.311 158.909,225.311 156,221.5C 146.816,199.4 151.982,181.567 171.5,168C 177.817,167.323 182.817,169.656 186.5,175C 187.448,175.483 188.448,175.649 189.5,175.5C 183.954,141.175 192.621,111.008 215.5,85C 223.145,78.3805 231.645,76.8805 241,80.5C 242.092,83.0444 242.759,85.7111 243,88.5C 245.053,92.2916 248.219,93.4582 252.5,92C 262.775,89.8793 272.775,86.8793 282.5,83C 289.733,76.9224 297.066,71.0891 304.5,65.5 Z"/></g>
<g><path style="opacity:1" fill="#f8f8f8" d="M 376.5,333.5 C 375.837,331.359 375.503,329.025 375.5,326.5C 381.701,277.423 373.868,230.756 352,186.5C 347.068,157.981 334.735,133.314 315,112.5C 308.159,101.818 302.659,90.485 298.5,78.5C 303.689,71.5492 309.523,70.8826 316,76.5C 318.943,84.6622 322.276,92.6622 326,100.5C 333.822,110.145 341.155,120.145 348,130.5C 353.161,140.488 357.494,150.822 361,161.5C 368.339,186.849 375.673,212.182 383,237.5C 390.842,267.407 390.176,297.073 381,326.5C 379.988,329.202 378.488,331.535 376.5,333.5 Z"/></g>
<g><path style="opacity:1" fill="#969696" d="M 298.5,78.5 C 302.659,90.485 308.159,101.818 315,112.5C 334.735,133.314 347.068,157.981 352,186.5C 373.868,230.756 381.701,277.423 375.5,326.5C 375.503,329.025 375.837,331.359 376.5,333.5C 376.265,334.097 375.765,334.43 375,334.5C 372.27,333.139 369.437,332.639 366.5,333C 365.253,334.494 365.253,335.994 366.5,337.5C 382.351,343.287 398.685,345.787 415.5,345C 423.688,343.157 431.854,341.324 440,339.5C 447.616,339.66 451.449,343.66 451.5,351.5C 450.181,361.335 444.848,368.168 435.5,372C 422.959,377.013 409.959,378.679 396.5,377C 381.382,377.65 367.716,373.65 355.5,365C 351.449,361.279 348.616,356.779 347,351.5C 344.524,349.937 343.024,350.604 342.5,353.5C 343.5,356.167 344.5,358.833 345.5,361.5C 345.471,363.029 344.804,364.196 343.5,365C 332.184,369.954 320.351,372.787 308,373.5C 293.195,371.712 278.362,370.212 263.5,369C 239.496,368.71 215.496,368.71 191.5,369C 184.727,367.854 178.394,365.52 172.5,362C 166.46,354.891 165.96,347.391 171,339.5C 177.302,335.622 183.802,332.122 190.5,329C 192.727,326.436 194.561,323.603 196,320.5C 197.873,307.543 199.54,294.543 201,281.5C 202.724,279.5 204.557,277.667 206.5,276C 197.248,259.741 188.414,243.241 180,226.5C 174.86,214.659 172.86,202.326 174,189.5C 179.244,180.642 186.744,178.142 196.5,182C 197.701,182.903 198.535,184.069 199,185.5C 201.15,200.635 207.65,213.468 218.5,224C 220.391,224.309 221.725,223.475 222.5,221.5C 216.958,216.115 212.791,209.781 210,202.5C 207.665,195.155 205.331,187.822 203,180.5C 200.667,178.5 198.333,176.5 196,174.5C 190.077,144.863 196.41,118.196 215,94.5C 220.071,87.3792 226.904,84.2126 235.5,85C 237.139,88.259 238.306,91.759 239,95.5C 239.833,96.3333 240.667,97.1667 241.5,98C 258.541,98.269 274.541,94.269 289.5,86C 292.665,83.6653 295.665,81.1653 298.5,78.5 Z"/></g>
<g><path style="opacity:1" fill="#8e8e8e" d="M 172.5,175.5 C 173.873,175.343 175.207,175.51 176.5,176C 169.904,182.198 166.57,189.865 166.5,199C 167.701,204.104 168.534,209.27 169,214.5C 170.617,215.536 170.784,216.703 169.5,218C 165.219,219.458 162.053,218.292 160,214.5C 154.087,198.077 158.253,185.077 172.5,175.5 Z"/></g>
<g><path style="opacity:0.768" fill="#000000" d="M 55.5,297.5 C 82.8415,297.167 110.175,297.5 137.5,298.5C 138.61,300.496 138.276,302.329 136.5,304C 109.833,304.667 83.1667,304.667 56.5,304C 52.8995,302.359 52.5662,300.193 55.5,297.5 Z"/></g>
</svg>
