<?xml version="1.0" standalone="no"?>
<!DOCTYPE svg PUBLIC "-//W3C//DTD SVG 20010904//EN"
 "http://www.w3.org/TR/2001/REC-SVG-20010904/DTD/svg10.dtd">
<svg version="1.0" xmlns="http://www.w3.org/2000/svg"
 width="259.000000pt" height="259.000000pt" viewBox="0 0 259.000000 259.000000"
 preserveAspectRatio="xMidYMid meet">

<g transform="translate(0.000000,259.000000) scale(0.100000,-0.100000)"
fill="#000000" stroke="none">
<path d="M1389 1891 c-145 -46 -329 -221 -402 -382 -37 -82 -83 -242 -97 -334
-8 -59 -22 -101 -52 -160 -48 -94 -62 -187 -35 -229 18 -26 15 -30 -34 -55
-60 -30 -86 -145 -42 -181 30 -24 82 -28 453 -36 274 -5 324 -4 380 10 l64 17
35 -35 c58 -56 115 -76 239 -83 94 -5 113 -3 139 12 35 21 63 63 63 97 -1 72
-25 90 -154 112 -90 16 -136 26 -136 31 0 1 8 20 17 41 22 51 23 289 2 384
-13 58 -13 70 3 135 10 38 22 95 26 125 6 50 10 56 46 76 41 23 65 55 66 87 0
29 -43 61 -117 87 -50 17 -88 41 -143 88 -41 35 -92 73 -112 83 -32 16 -38 25
-38 52 0 41 -8 53 -43 66 -38 15 -62 13 -128 -8z m135 -27 c22 -21 20 -34 -4
-34 -36 0 -21 -17 58 -67 42 -27 103 -73 136 -101 40 -35 78 -58 122 -72 35
-12 73 -29 85 -39 33 -26 19 -64 -33 -93 -41 -22 -43 -26 -54 -88 -15 -84 -40
-185 -59 -239 -18 -53 -18 -51 -1 -51 8 0 16 6 19 13 5 15 15 -29 25 -115 9
-73 -2 -218 -19 -260 -12 -30 -36 -37 -45 -13 -6 14 -34 22 -34 9 0 -37 90
-83 179 -91 89 -8 161 -32 170 -55 11 -30 2 -64 -25 -93 -21 -23 -30 -25 -113
-25 -112 0 -175 13 -225 48 -53 36 -78 73 -85 122 -8 55 -27 46 -24 -12 2 -44
1 -47 -30 -58 -54 -19 -149 -22 -467 -13 -303 9 -340 14 -362 47 -26 38 14
119 67 136 19 6 35 16 35 21 0 5 10 9 23 9 12 0 38 10 58 23 87 54 99 62 99
70 0 14 -28 7 -61 -18 -68 -48 -90 -58 -114 -47 -52 24 -44 106 21 233 24 47
44 94 44 104 0 10 5 46 11 79 57 304 146 458 348 604 101 73 218 103 255 66z"/>
<path d="M1266 1594 c-9 -22 11 -44 40 -44 34 0 37 16 8 39 -32 25 -40 26 -48
5z"/>
<path d="M1397 1528 c-10 -5 -29 -7 -42 -4 -13 3 -26 2 -30 -3 -8 -14 32 -33
53 -26 12 3 25 -4 40 -25 13 -16 29 -30 37 -30 20 0 19 10 -2 25 -9 7 -22 26
-28 43 -8 26 -13 29 -28 20z"/>
<path d="M1507 1464 c-9 -9 10 -41 28 -48 18 -6 55 9 55 23 0 5 -14 14 -31 20
-37 13 -43 13 -52 5z"/>
</g>
</svg>
